<svg xmlns="http://www.w3.org/2000/svg" width="30" height="31" fill="none"><path fill="#0056A6" d="M0 25.03V6.89A5.83 5.83 0 0 1 5.73.96h18.54A5.83 5.83 0 0 1 30 6.89v18.14a5.83 5.83 0 0 1-5.73 5.93H5.73A5.83 5.83 0 0 1 0 25.03Z"/><path fill="#86C5FF" d="M.63 6.89a5.2 5.2 0 0 1 5.1-5.3h18.54a5.2 5.2 0 0 1 5.1 5.3v18.14a5.2 5.2 0 0 1-5.1 5.3H5.73a5.2 5.2 0 0 1-5.1-5.3V6.89Z"/><path fill="#EDF6FF" d="M21.7 6.05a2.3 2.3 0 0 1 3.93 1.63v16.64a2.3 2.3 0 0 1-2.3 2.3H6.67a2.3 2.3 0 0 1-1.63-3.93L21.7 6.05ZM23.31 26h.1-.1Zm-16.7 0h.06-.1.03Zm-.16-.01Zm17.06 0 .07-.01h-.07Zm-17.21-.03Zm17.37 0 .07-.02-.07.02Zm-17.5-.03Zm17.66-.01.05-.02-.05.02Zm-17.77-.03.07.03-.07-.03Zm-.1-.04.05.02-.05-.02Zm18.03 0h.03H24ZM5.85 25.8Zm18.29 0 .05-.03c-.02 0-.03.02-.05.03Zm-18.38-.06.04.02-.04-.02Zm18.52-.03.04-.03-.04.03Zm-18.62-.04Zm-.08-.07.03.03-.03-.03Zm18.82.02.05-.05-.05.05Zm-18.96-.15Zm19.19-.08.02-.03-.02.03ZM5 24.4v.01-.01Zm.02-.35Zm.03-.12-.02.06.02-.06Zm.03-.12-.02.05.02-.05Zm.05-.12Zm.04-.1Zm.06-.1c-.01 0-.02.01-.02.03l.02-.04Zm.07-.12-.03.05c0-.02.02-.03.03-.05Zm.08-.1-.04.04.04-.04Zm.07-.08-.03.03.08-.08-.05.05ZM5.4 25.4l.04.05-.04-.05Zm-.2-.29.03.05-.02-.05Z"/><mask id="a" width="20" height="20" x="5" y="6" maskUnits="userSpaceOnUse" style="mask-type:alpha"><path fill="#333" d="M22.14 6.5A1.68 1.68 0 0 1 25 7.67v16.64c0 .93-.75 1.68-1.68 1.68H6.68c-1.5 0-2.24-1.8-1.19-2.86L22.14 6.49Z"/></mask><g mask="url(#a)"><path fill="#0285FF" d="M5-84h6.67v200H5z"/><path fill="#0056A6" d="M11.67-84h6.67v200h-6.67z"/><path fill="#001D38" d="M18.33-84H25v200h-6.67z"/></g></svg>