<svg xmlns="http://www.w3.org/2000/svg" width="33" height="32" fill="none"><g clip-path="url(#a)"><path fill="#0ACF83" stroke="#FD91FF" stroke-width=".5" d="M11.16 21.58h5.09v5.09a5.09 5.09 0 1 1-5.09-5.09Z"/><path fill="#A259FF" d="M5.83 16a5.34 5.34 0 0 1 5.33-5.33h5.33v10.66h-5.33A5.34 5.34 0 0 1 5.83 16Z"/><path fill="#F24E1E" d="M5.83 5.33A5.34 5.34 0 0 1 11.16 0h5.33v10.67h-5.33a5.34 5.34 0 0 1-5.33-5.34Z"/><path fill="#FF7262" d="M16.5 0h5.33a5.34 5.34 0 0 1 0 10.67h-5.34V0Z"/><path fill="#1ABCFE" d="M27.16 16a5.34 5.34 0 1 1-10.67 0 5.34 5.34 0 0 1 10.67 0Z"/></g><defs><clipPath id="a"><path fill="#fff" d="M.5 0h32v32H.5z"/></clipPath></defs></svg>