<svg xmlns="http://www.w3.org/2000/svg" width="432" height="160" fill="none" viewBox="0 0 432 160"><g clip-path="url(#a)"><path fill="#001d38" d="M0 0h432v160H0z"/><path fill="#0056a6" d="M186 98.06V61.77c0-6.5 5.08-11.85 11.45-11.85h37.1c6.37 0 11.45 5.35 11.45 11.85v36.29c0 6.5-5.08 11.86-11.45 11.86h-37.1c-6.37 0-11.45-5.36-11.45-11.86"/><path fill="#86c5ff" d="M187.25 61.77c0-5.85 4.57-10.6 10.2-10.6h37.1c5.63 0 10.2 4.75 10.2 10.6v36.29c0 5.86-4.57 10.6-10.2 10.6h-37.1c-5.63 0-10.2-4.74-10.2-10.6z"/><path fill="#edf6ff" d="M229.39 60.1a4.6 4.6 0 0 1 7.86 3.26v33.28a4.6 4.6 0 0 1-4.6 4.61h-33.29a4.6 4.6 0 0 1-3.25-7.86zm3.26 39.9h.11zm-33.43 0h.14-.2zm33.98-.05h.06zm.47-.11.09-.03zm-35.74-.16.11.06zm36.07.03h.02zm.13-.06.07-.03zm.14-.08.06-.03zm-36.76-.12.1.06zm36.9.05.05-.03q-.03 0-.05.03m-37.08-.18.08.06zm37.47-.1.03-.03zm.23-.22.03-.03zm-38.26-.22.11.13zm38.48-.02.03-.04zm-38.6-.15.08.12zm38.86-.23.06-.09zm.23-.44.03-.08zm-39.68-.69.02.1zm-.03-.22v.09zm-.03-.24.01.1zm0-.23v.13zm.01-.24v.14zm.08-.46-.03.12zm.06-.23-.03.1zm.19-.46-.05.1zm.55-.8-.04.05.14-.15zm-.4 4.02-.02-.04z"/><mask id="b" width="40" height="40" x="196" y="60" maskUnits="userSpaceOnUse" style="mask-type:alpha"><path fill="#333" d="M230.27 60.99a3.36 3.36 0 0 1 5.73 2.37v33.28c0 1.86-1.5 3.36-3.35 3.36h-33.29a3.36 3.36 0 0 1-2.37-5.73z"/></mask><g mask="url(#b)"><path fill="#0285ff" d="M196 55h13.33v50H196z"/><path fill="#0056a6" d="M209.33 55h13.33v50h-13.33z"/><path fill="#001d38" d="M222.67 55H236v50h-13.33z"/></g></g><defs><clipPath id="a"><path fill="#fff" d="M0 0h432v160H0z"/></clipPath></defs></svg>