<svg xmlns="http://www.w3.org/2000/svg" width="24" height="24" fill="none"><path fill="#EDF6FF" d="M19.56.767C21.2-.871 24 .289 24 2.606V21.4a2.6 2.6 0 0 1-2.6 2.6H2.606C.289 24-.871 21.2.766 19.56L19.562.768Zm1.84 22.527h.048c.031 0 .062-.006.092-.008-.046.004-.093.008-.14.008Zm-18.873 0h.079c-.043 0-.085-.002-.126-.005l.047.004Zm-.194-.02Zm19.279.007c.033-.003.066-.01.1-.015-.034.005-.067.012-.1.015Zm-19.414-.03Zm19.604 0 .089-.023c-.03.008-.06.016-.09.022Zm-19.756-.038Zm19.936-.012.09-.033-.09.033Zm-20.079-.038Zm-.124-.053Zm20.37.029c.03-.013.06-.029.09-.043-.03.014-.06.03-.09.043Zm-20.488-.092Zm20.661.007.07-.043c-.023.014-.046.03-.07.043Zm-20.754-.065Zm20.91-.032.053-.04-.053.04ZM1.415 22.88Zm-.082-.071Zm21.282.043.05-.044-.05.044Zm-21.369-.128.053.053-.053-.053Zm21.505.003Zm.116-.13c.019-.023.036-.047.053-.07-.017.023-.034.047-.053.07Zm.108-.146Zm-22.04-.16c.013.025.025.05.039.073-.014-.023-.026-.048-.04-.073Zm22.134.006c.011-.021.02-.044.03-.065-.01.021-.019.044-.03.065Zm.14-.336.027-.105c-.008.035-.016.07-.027.105Zm.085-.56ZM.71 21.482l.002.02-.002-.02Zm.024-.4-.007.049.007-.049Zm.028-.137Zm.037-.13Zm.047-.128Zm.053-.117Zm.068-.127-.027.05.027-.05Zm.08-.123-.041.062.041-.062Zm.089-.116Zm.077-.088a2.976 2.976 0 0 0 .054-.056l-.054.056Zm-.504 1.232v.052-.052Z"/><mask id="a" width="24" height="24" x="0" y="0" maskUnits="userSpaceOnUse" style="mask-type:alpha"><path fill="#333" d="M20.06 1.266c1.193-1.194 3.234-.348 3.234 1.34V21.4a1.895 1.895 0 0 1-1.895 1.894H2.607c-1.688 0-2.534-2.04-1.34-3.234L20.06 1.266Z"/></mask><g mask="url(#a)"><path fill="#0285FF" d="M.707-87.999h7.529v200H.707z"/><path fill="#0056A6" d="M8.236-87.999h7.529v200H8.236z"/><path fill="#001D38" d="M15.765-87.999h7.529v200h-7.529z"/></g></svg>