<svg xmlns="http://www.w3.org/2000/svg" width="49" height="48" fill="none"><path fill="#F7DF1E" d="M3.25 3h42v42h-42z"/><path fill="#000" d="m28.75 37.93 3.1-2.04c.23.76 1.77 2.56 3.7 2.56 1.95 0 2.85-1.05 2.85-1.76 0-1.9-1.98-2.58-2.93-2.9l-.37-.14a5.55 5.55 0 0 0-.2-.08c-1.06-.4-4.96-1.9-4.96-6.21 0-4.76 4.6-5.31 5.63-5.31.68 0 3.95.08 5.57 3.14l-3 2.1c-.66-1.34-1.75-1.78-2.42-1.78-1.66 0-2 1.22-2 1.77 0 1.56 1.8 2.26 3.32 2.85.4.15.78.3 1.1.45 1.66.78 4.11 2.07 4.11 6.11 0 2.03-1.7 5.31-5.98 5.31-5.74 0-7.27-3.45-7.52-4.07ZM13.75 38.34l3.22-2.05c.26.76 1.24 2.17 2.66 2.17 1.42 0 2.15-1.47 2.15-2.17V22.5h3.97v13.8c.06 1.9-1 5.7-5.65 5.7-4.28 0-6.06-2.54-6.35-3.66Z"/></svg>