<svg xmlns="http://www.w3.org/2000/svg" width="49" height="48" fill="none"><path fill="#fff" fill-opacity=".75" d="M42.49 20.19c.95-2.86.62-6-.9-8.6a10.58 10.58 0 0 0-11.4-5.07c-2-2.26-4.88-3.54-7.9-3.52a10.58 10.58 0 0 0-10.09 7.33A10.59 10.59 0 0 0 6.5 27.8c-.94 2.86-.62 6 .9 8.6 2.3 3.99 6.9 6.04 11.4 5.07 2 2.26 4.88 3.54 7.9 3.52 4.6.01 8.68-2.95 10.1-7.33 2.95-.6 5.5-2.46 7-5.08 2.3-3.98 1.77-8.99-1.31-12.4ZM26.7 42.26a7.84 7.84 0 0 1-5.04-1.83l.25-.14 8.36-4.83c.43-.24.7-.7.7-1.19V22.48l3.53 2.04c.03.02.06.06.06.1v9.76a7.88 7.88 0 0 1-7.86 7.88ZM9.8 35.03a7.84 7.84 0 0 1-.95-5.27l.25.15 8.36 4.83c.43.25.95.25 1.38 0l10.2-5.9v4.08c.01.05 0 .09-.04.11l-8.46 4.88A7.88 7.88 0 0 1 9.8 35.03ZM7.58 16.78a7.84 7.84 0 0 1 4.1-3.45v9.95c-.01.49.25.94.68 1.19l10.2 5.89-3.53 2.04a.12.12 0 0 1-.12.01l-8.45-4.88a7.88 7.88 0 0 1-2.88-10.75Zm29.04 6.75-10.2-5.9 3.53-2.03a.12.12 0 0 1 .11-.01l8.46 4.88a7.87 7.87 0 0 1-1.22 14.2v-9.95c0-.49-.25-.94-.68-1.19Zm3.52-5.29-.25-.15-8.36-4.83a1.36 1.36 0 0 0-1.38 0l-10.2 5.9v-4.08c-.01-.05.01-.09.04-.11l8.46-4.88a7.87 7.87 0 0 1 11.69 8.15Zm-22.12 7.28-3.53-2.05a.12.12 0 0 1-.07-.1v-9.76a7.87 7.87 0 0 1 12.9-6.04l-.24.14-8.37 4.83c-.42.24-.69.7-.68 1.19V25.5Zm1.92-4.14 4.55-2.63 4.55 2.62v5.26l-4.55 2.62-4.55-2.62v-5.25Z"/></svg>