<svg xmlns="http://www.w3.org/2000/svg" width="49" height="48" fill="none"><g clip-path="url(#a)"><mask id="b" width="49" height="48" x="0" y="0" maskUnits="userSpaceOnUse" style="mask-type:luminance"><path fill="#fff" d="M48.5 0H.5v48h48V0Z"/></mask><g mask="url(#b)"><mask id="c" width="49" height="53" x="0" y="-5" maskUnits="userSpaceOnUse" style="mask-type:luminance"><path fill="#fff" d="M.5 0h48v48H.5V0Zm39.86-4.11H20.73v45h19.63v-45Z"/></mask><g mask="url(#c)"><path fill="#FBBC04" d="M2.56 39.77 22.44 8.23H34.8v4.39L17.64 39.77"/></g><path fill="#1A73E8" d="M34.79 39.77H22.44V8.23H34.8v31.54Z"/><path fill="#34A853" d="M43.7 30.86c0 4.92-4 8.91-8.91 8.91V21.94c4.92 0 8.91 4 8.91 8.92Z"/><path fill="#0D652D" d="M34.79 39.77a8.91 8.91 0 1 1 0-17.83v17.83Z"/><path fill="#1A73E8" d="M41.64 15.09a6.86 6.86 0 0 1-6.85 6.85V8.23a6.86 6.86 0 0 1 6.85 6.86Z"/><path fill="#174EA6" d="M34.79 21.94a6.86 6.86 0 1 1 0-13.71v13.71Z"/><path fill="#EA4335" d="M3.24 14.4a6.17 6.17 0 1 1 12.35 0 6.17 6.17 0 0 1-12.35 0Z"/></g></g><defs><clipPath id="a"><path fill="#fff" d="M.5 0h48v48H.5z"/></clipPath></defs></svg>