<svg xmlns="http://www.w3.org/2000/svg" width="49" height="48" fill="none"><g clip-path="url(#a)"><path fill="#0ACF83" d="M17.25 45c3.864 0 7-3.136 7-7v-7h-7c-3.864 0-7 3.136-7 7s3.136 7 7 7Z"/><path fill="#A259FF" d="M10.25 24c0-3.864 3.136-7 7-7h7v14h-7c-3.864 0-7-3.136-7-7Z"/><path fill="#F24E1E" d="M10.25 10c0-3.864 3.136-7 7-7h7v14h-7c-3.864 0-7-3.136-7-7Z"/><path fill="#FF7262" d="M24.25 3h7c3.864 0 7 3.136 7 7s-3.136 7-7 7h-7V3Z"/><path fill="#1ABCFE" d="M38.25 24c0 3.864-3.136 7-7 7s-7-3.136-7-7 3.136-7 7-7 7 3.136 7 7Z"/></g><defs><clipPath id="a"><path fill="#fff" d="M3.25 3h42v42h-42z"/></clipPath></defs></svg>