<svg width="48" height="48" xmlns="http://www.w3.org/2000/svg"><mask id="logo-antigravity__a" style="mask-type:alpha" maskUnits="userSpaceOnUse" x="3" y="4" width="42" height="40"><path d="M41.065 42.614c2.345 1.772 5.862.59 2.638-2.66C34.03 30.5 36.082 4.5 24.064 4.5c-12.017 0-9.966 26-19.638 35.455-3.518 3.545.293 4.431 2.638 2.659 9.086-6.205 8.5-17.137 17-17.137s7.914 10.932 17 17.137Z"/></mask><g mask="url(#logo-antigravity__a)"><g filter="url(#logo-antigravity__b)"><path d="M1.219-4.305c-.714 6.333 4.701 12.154 12.093 13 7.393.845 13.964-3.604 14.677-9.937.713-6.334-4.701-12.154-12.094-13-7.392-.845-13.963 3.603-14.676 9.937Z" fill="#FFE432"/></g><g filter="url(#logo-antigravity__c)"><path d="M29.72 16.402c1.853 8.038 9.961 13.008 18.111 11.1 8.15-1.908 13.255-9.971 11.403-18.01-1.852-8.038-9.96-13.007-18.11-11.1-8.15 1.909-13.255 9.972-11.403 18.01Z" fill="#FC413D"/></g><g filter="url(#logo-antigravity__d)"><path d="M-18.774 21.794c2.34 8.296 12.88 12.543 23.542 9.487 10.661-3.056 17.407-12.258 15.067-20.554S6.955-1.816-3.707 1.24C-14.37 4.296-21.114 13.498-18.774 21.794Z" fill="#00B95C"/></g><g filter="url(#logo-antigravity__e)"><path d="M-18.774 21.794c2.34 8.296 12.88 12.543 23.542 9.487 10.661-3.056 17.407-12.258 15.067-20.554S6.955-1.816-3.707 1.24C-14.37 4.296-21.114 13.498-18.774 21.794Z" fill="#00B95C"/></g><g filter="url(#logo-antigravity__f)"><path d="M-10.314 28.67c5.867 6.04 15.971 5.66 22.568-.851 6.598-6.51 7.19-16.685 1.323-22.726C7.71-.947-2.394-.566-8.992 5.945c-6.597 6.51-7.189 16.685-1.322 22.725Z" fill="#00B95C"/></g><g filter="url(#logo-antigravity__g)"><path d="M20.381 51.451c1.822 7.907 9.422 12.883 16.976 11.114 7.553-1.768 12.2-9.611 10.378-17.518-1.822-7.906-9.422-12.882-16.976-11.114-7.553 1.769-12.2 9.612-10.378 17.518Z" fill="#3186FF"/></g><g filter="url(#logo-antigravity__h)"><path d="M7.502-11.702c-3.815 8.566.36 18.798 9.323 22.854 8.963 4.055 19.322.4 23.136-8.167 3.815-8.565-.358-18.797-9.322-22.853-8.963-4.056-19.322-.4-23.137 8.166Z" fill="#FBBC04"/></g><g filter="url(#logo-antigravity__i)"><path d="M-2.717 70.977c-9.235-3.654 6.548-33.721 10.473-43.799C11.68 17.101 22.349 11.895 31.584 15.55c9.235 3.655 20.182 23.783 16.257 33.86C43.916 59.487 6.519 74.632-2.717 70.977Z" fill="#3186FF"/></g><g filter="url(#logo-antigravity__j)"><path d="M53.242 33.554c-2.473 2.909-8.925 1.425-14.411-3.313-5.487-4.739-7.93-10.938-5.458-13.847 2.472-2.909 8.924-1.425 14.411 3.313 5.487 4.739 7.93 10.938 5.458 13.847Z" fill="#749BFF"/></g><g filter="url(#logo-antigravity__k)"><path d="M34.785 18.748c10.17 6.934 21.88 7.39 26.156 1.017 4.276-6.372-.501-17.158-10.67-24.092-10.17-6.934-21.88-7.39-26.156-1.018s.5 17.159 10.67 24.093Z" fill="#FC413D"/></g><g filter="url(#logo-antigravity__l)"><path d="M1.4 7.47c-2.52 6.126-1.697 12.29 1.837 13.766 3.534 1.477 8.442-2.292 10.961-8.418C16.718 6.692 15.895.528 12.36-.948 8.826-2.425 3.918 1.344 1.4 7.47Z" fill="#FFEE48"/></g></g><defs><filter id="logo-antigravity__b" x="-.91" y="-16.41" width="31.028" height="27.273" filterUnits="userSpaceOnUse" color-interpolation-filters="sRGB"><feFlood flood-opacity="0" result="BackgroundImageFix"/><feBlend in="SourceGraphic" in2="BackgroundImageFix" result="shape"/><feGaussianBlur stdDeviation="1.033" result="effect1_foregroundBlur_257_335"/></filter><filter id="logo-antigravity__c" x="19.355" y="-12.001" width="50.244" height="49.897" filterUnits="userSpaceOnUse" color-interpolation-filters="sRGB"><feFlood flood-opacity="0" result="BackgroundImageFix"/><feBlend in="SourceGraphic" in2="BackgroundImageFix" result="shape"/><feGaussianBlur stdDeviation="4.993" result="effect1_foregroundBlur_257_335"/></filter><filter id="logo-antigravity__d" x="-27.727" y="-8.241" width="56.515" height="49.002" filterUnits="userSpaceOnUse" color-interpolation-filters="sRGB"><feFlood flood-opacity="0" result="BackgroundImageFix"/><feBlend in="SourceGraphic" in2="BackgroundImageFix" result="shape"/><feGaussianBlur stdDeviation="4.245" result="effect1_foregroundBlur_257_335"/></filter><filter id="logo-antigravity__e" x="-27.727" y="-8.241" width="56.515" height="49.002" filterUnits="userSpaceOnUse" color-interpolation-filters="sRGB"><feFlood flood-opacity="0" result="BackgroundImageFix"/><feBlend in="SourceGraphic" in2="BackgroundImageFix" result="shape"/><feGaussianBlur stdDeviation="4.245" result="effect1_foregroundBlur_257_335"/></filter><filter id="logo-antigravity__f" x="-22.843" y="-7.688" width="48.95" height="49.14" filterUnits="userSpaceOnUse" color-interpolation-filters="sRGB"><feFlood flood-opacity="0" result="BackgroundImageFix"/><feBlend in="SourceGraphic" in2="BackgroundImageFix" result="shape"/><feGaussianBlur stdDeviation="4.245" result="effect1_foregroundBlur_257_335"/></filter><filter id="logo-antigravity__g" x="11.919" y="25.509" width="44.279" height="45.48" filterUnits="userSpaceOnUse" color-interpolation-filters="sRGB"><feFlood flood-opacity="0" result="BackgroundImageFix"/><feBlend in="SourceGraphic" in2="BackgroundImageFix" result="shape"/><feGaussianBlur stdDeviation="4.034" result="effect1_foregroundBlur_257_335"/></filter><filter id="logo-antigravity__h" x="-1.222" y="-28.834" width="49.908" height="48.952" filterUnits="userSpaceOnUse" color-interpolation-filters="sRGB"><feFlood flood-opacity="0" result="BackgroundImageFix"/><feBlend in="SourceGraphic" in2="BackgroundImageFix" result="shape"/><feGaussianBlur stdDeviation="3.656" result="effect1_foregroundBlur_257_335"/></filter><filter id="logo-antigravity__i" x="-12.101" y="7.852" width="67.291" height="70.211" filterUnits="userSpaceOnUse" color-interpolation-filters="sRGB"><feFlood flood-opacity="0" result="BackgroundImageFix"/><feBlend in="SourceGraphic" in2="BackgroundImageFix" result="shape"/><feGaussianBlur stdDeviation="3.265" result="effect1_foregroundBlur_257_335"/></filter><filter id="logo-antigravity__j" x="26.566" y="9.063" width="33.484" height="31.823" filterUnits="userSpaceOnUse" color-interpolation-filters="sRGB"><feFlood flood-opacity="0" result="BackgroundImageFix"/><feBlend in="SourceGraphic" in2="BackgroundImageFix" result="shape"/><feGaussianBlur stdDeviation="2.921" result="effect1_foregroundBlur_257_335"/></filter><filter id="logo-antigravity__k" x="17.613" y="-14.776" width="49.829" height="43.972" filterUnits="userSpaceOnUse" color-interpolation-filters="sRGB"><feFlood flood-opacity="0" result="BackgroundImageFix"/><feBlend in="SourceGraphic" in2="BackgroundImageFix" result="shape"/><feGaussianBlur stdDeviation="2.467" result="effect1_foregroundBlur_257_335"/></filter><filter id="logo-antigravity__l" x="-6.168" y="-7.376" width="27.934" height="35.04" filterUnits="userSpaceOnUse" color-interpolation-filters="sRGB"><feFlood flood-opacity="0" result="BackgroundImageFix"/><feBlend in="SourceGraphic" in2="BackgroundImageFix" result="shape"/><feGaussianBlur stdDeviation="3.054" result="effect1_foregroundBlur_257_335"/></filter></defs></svg>