<svg xmlns="http://www.w3.org/2000/svg" width="49" height="48" fill="none"><path fill="#fff" fill-rule="evenodd" d="M47.811 10.081h-.457a4.35 4.35 0 0 0-4.361 4.346v9.72c0 1.941-1.607 3.513-3.52 3.513-1.136 0-2.27-.57-2.943-1.529l-9.945-14.178a4.407 4.407 0 0 0-3.62-1.88c-2.267 0-4.307 1.925-4.307 4.3v9.776c0 1.941-1.594 3.513-3.52 3.513-1.14 0-2.272-.57-2.945-1.529L1.066 10.268c-.252-.357-.816-.181-.816.257v8.477c0 .428.131.844.377 1.196l10.95 15.612c.646.923 1.6 1.608 2.701 1.857 2.754.625 5.29-1.492 5.29-4.19v-9.77a3.515 3.515 0 0 1 3.519-3.513h.005c1.172 0 2.27.57 2.944 1.53L35.98 35.9c.827 1.179 2.1 1.88 3.62 1.88 2.316 0 4.302-1.927 4.302-4.3v-9.775a3.515 3.515 0 0 1 3.52-3.513h.387a.44.44 0 0 0 .441-.44V10.52a.44.44 0 0 0-.44-.44l.001.002Z" clip-rule="evenodd"/></svg>