<svg width="1030" height="213" xmlns="http://www.w3.org/2000/svg"><rect width="1029.78" height="213" rx="10" fill="#001D38"/><path d="M205.388 107.891V49.84c0-10.406 8.133-18.975 18.327-18.975h59.346c10.195 0 18.327 8.57 18.327 18.975v58.051c0 10.405-8.132 18.974-18.327 18.974h-59.346c-10.194 0-18.327-8.569-18.327-18.974Z" fill="#0056A6"/><path d="M207.388 49.84c0-9.375 7.31-16.975 16.327-16.975h59.347c9.017 0 16.326 7.6 16.326 16.975v58.05c0 9.375-7.309 16.975-16.326 16.975h-59.347c-9.017 0-16.327-7.6-16.327-16.975V49.84Z" fill="#86C5FF"/><path d="M274.809 47.169c4.642-4.642 12.579-1.354 12.579 5.21v53.252a7.37 7.37 0 0 1-7.369 7.369h-53.251c-6.565 0-9.853-7.937-5.211-12.579l53.252-53.252Zm5.212 63.83.137-.001.055-.003a6.085 6.085 0 0 1-.192.004Zm.361-.013Zm.264-.024Zm-54.735-.026.062.008-.062-.008Zm55.004-.012.105-.019-.105.019Zm-55.205-.023.087.015-.087-.015Zm55.445-.023.131-.03-.131.03Zm-55.835-.066.041.009-.041-.009Zm56.106 0Zm.25-.075.09-.03-.09.03Zm-56.732-.043Zm56.991-.048c.028-.01.055-.022.083-.033-.028.011-.055.023-.083.033Zm-57.363-.099Zm57.576.013.124-.056-.124.056Zm.257-.12Zm-58.283-.122Zm58.516 0Zm-58.837-.196Zm59.041.075.097-.062-.097.062Zm.219-.143Zm-59.592-.172c.056.044.111.088.169.13-.058-.042-.113-.086-.169-.13Zm59.812.013.036-.029-.036.029Zm-60.106-.261Zm60.304.101Zm.178-.157c.028-.025.055-.052.082-.078-.027.026-.054.053-.082.078Zm-60.758-.215c.054.057.108.114.164.168-.056-.054-.11-.111-.164-.168Zm60.944.035Zm-61.171-.289c.044.052.087.104.132.155-.045-.051-.088-.103-.132-.155Zm61.346.103.061-.068-.061.068Zm.17-.198Zm-61.836-.324Zm61.983.135Zm-62.135-.374Zm62.277.172Zm.14-.219c.022-.036.043-.074.064-.111-.021.037-.042.075-.064.111Zm.251-.467Zm.104-.233c.015-.034.028-.069.041-.103-.013.034-.026.069-.041.103Zm.096-.244.044-.129a6.543 6.543 0 0 1-.044.129Zm-63.5-.486c.013.048.028.095.042.142-.014-.047-.029-.094-.042-.142Zm-.081-.359c.009.047.021.093.031.139-.01-.046-.022-.092-.031-.139Zm63.887-.617c.008-.121.014-.244.014-.367v.001c0 .123-.006.245-.014.366Zm-63.946.248c.008.064.021.127.031.191-.01-.064-.023-.127-.031-.191Zm-.032-.379c.004.072.011.144.018.216-.007-.072-.014-.144-.018-.216Zm-.006-.383Zm.021-.371c-.008.081-.011.162-.015.242.004-.08.007-.161.015-.242Zm.048-.375c-.012.071-.02.142-.029.213.009-.071.017-.142.029-.213Zm.075-.37Zm.101-.365c-.018.056-.033.113-.049.17.016-.057.031-.114.049-.17Zm.118-.332-.013.034.013-.034Zm.163-.365-.025.047.025-.047Zm.208-.386Zm.551-.766a7.561 7.561 0 0 0-.004.005l.004-.005Zm62.607 4.546.027-.156-.027.156Zm.045-.258Zm.034-.266c.006-.059.009-.119.013-.178-.004.059-.007.119-.013.178Z" fill="#EDF6FF"/><mask id="logo-for-github__a" style="mask-type:alpha" maskUnits="userSpaceOnUse" x="221" y="47" width="65" height="64"><path d="M276.224 48.583c3.382-3.382 9.164-.986 9.164 3.796v53.252A5.368 5.368 0 0 1 280.02 111h-53.252c-4.783 0-7.178-5.783-3.796-9.165l53.252-53.252Z" fill="#333"/></mask><g mask="url(#logo-for-github__a)"><path fill="#0285FF" d="M221.388 39h21.333v80h-21.333z"/><path fill="#0056A6" d="M242.722 39h21.333v80h-21.333z"/><path fill="#001D38" d="M264.055 39h21.333v80h-21.333z"/></g><path d="M343.409 112.128c-6.647 0-12.367-1.316-17.161-3.948-4.793-2.632-8.468-6.392-11.025-11.28-2.556-4.888-3.835-10.653-3.835-17.296 0-6.643 1.311-12.377 3.931-17.202 2.684-4.888 6.455-8.648 11.313-11.28 4.857-2.695 10.577-4.042 17.16-4.042 6.072 0 11.345 1.316 15.819 3.948 4.537 2.632 8.021 6.173 10.449 10.622l-13.421 4.794c-1.406-2.57-3.324-4.387-5.752-5.452-2.429-1.128-4.954-1.692-7.574-1.692-2.94 0-5.624.815-8.053 2.444-2.429 1.567-4.346 3.885-5.752 6.956-1.406 3.008-2.109 6.643-2.109 10.904 0 6.58 1.533 11.625 4.601 15.134 3.132 3.447 6.967 5.17 11.505 5.17 2.428 0 4.921-.501 7.477-1.504 2.621-1.003 4.666-2.851 6.136-5.546l13.326 4.794c-2.557 4.449-6.2 7.99-10.929 10.622-4.666 2.569-10.035 3.854-16.106 3.854Zm53.523 0c-4.41 0-8.532-.877-12.367-2.632-3.835-1.755-6.935-4.449-9.3-8.084-2.364-3.697-3.547-8.335-3.547-13.912 0-5.64 1.183-10.246 3.547-13.818 2.365-3.635 5.465-6.298 9.3-7.99 3.835-1.755 7.957-2.632 12.367-2.632 4.346 0 8.436.877 12.271 2.632 3.835 1.692 6.935 4.355 9.299 7.99 2.365 3.572 3.548 8.178 3.548 13.818 0 5.577-1.183 10.215-3.548 13.912-2.364 3.635-5.464 6.329-9.299 8.084-3.835 1.755-7.925 2.632-12.271 2.632Zm0-11.092c2.94 0 5.369-1.034 7.286-3.102 1.981-2.068 2.972-5.546 2.972-10.434 0-4.95-1.023-8.397-3.068-10.34-1.981-2.005-4.378-3.008-7.19-3.008-2.876 0-5.337 1.003-7.382 3.008-1.981 1.943-2.972 5.39-2.972 10.34 0 4.888.991 8.366 2.972 10.434 1.981 2.068 4.442 3.102 7.382 3.102ZM443.36 111c-3.899 0-6.999-.313-9.299-.94-2.301-.689-3.963-1.974-4.986-3.854-.958-1.943-1.438-4.731-1.438-8.366V48.208h14.573V94.08c0 2.193.447 3.635 1.342 4.324.894.627 2.556.94 4.985.94h4.122V111h-9.299Zm35.615 1.128c-4.41 0-8.532-.877-12.367-2.632-3.835-1.755-6.935-4.449-9.299-8.084-2.365-3.697-3.548-8.335-3.548-13.912 0-5.64 1.183-10.246 3.548-13.818 2.364-3.635 5.464-6.298 9.299-7.99 3.835-1.755 7.957-2.632 12.367-2.632 4.346 0 8.437.877 12.271 2.632 3.835 1.692 6.935 4.355 9.3 7.99 2.364 3.572 3.547 8.178 3.547 13.818 0 5.577-1.183 10.215-3.547 13.912-2.365 3.635-5.465 6.329-9.3 8.084-3.834 1.755-7.925 2.632-12.271 2.632Zm0-11.092c2.94 0 5.369-1.034 7.286-3.102 1.981-2.068 2.972-5.546 2.972-10.434 0-4.95-1.023-8.397-3.068-10.34-1.981-2.005-4.378-3.008-7.19-3.008-2.876 0-5.337 1.003-7.382 3.008-1.981 1.943-2.972 5.39-2.972 10.34 0 4.888.991 8.366 2.972 10.434 1.981 2.068 4.442 3.102 7.382 3.102ZM509.681 111V64.376h11.504l2.588 8.554c1.47-3.76 3.484-6.392 6.04-7.896 2.557-1.504 5.656-2.162 9.299-1.974v14.288a12.682 12.682 0 0 0-2.013-.188 17.794 17.794 0 0 0-1.917-.094c-3.515 0-6.232.815-8.149 2.444-1.854 1.63-2.78 4.293-2.78 7.99V111h-14.572Zm31.647-17.296V81.578h31.254v12.126h-31.254ZM577.573 111V48.208h24.639c5.56 0 10.513.533 14.859 1.598 4.41 1.065 7.862 3.008 10.354 5.828 2.557 2.82 3.835 6.83 3.835 12.032 0 2.381-.447 4.763-1.342 7.144-.895 2.319-2.461 4.45-4.698 6.392-2.173 1.943-5.305 3.447-9.395 4.512L634.424 111H616.88l-17.353-23.688h-6.806V111h-15.148Zm15.148-36.096h9.97c3.579 0 6.551-.439 8.916-1.316 2.428-.94 3.643-2.851 3.643-5.734 0-2.945-1.215-4.857-3.643-5.734-2.365-.94-5.337-1.41-8.916-1.41h-9.97v14.194Zm60.526 37.224c-3.004 0-5.753-.564-8.245-1.692-2.493-1.128-4.474-2.695-5.944-4.7-1.47-2.068-2.205-4.512-2.205-7.332 0-3.823 1.342-6.862 4.026-9.118 2.749-2.256 6.488-3.948 11.217-5.076 4.73-1.128 10.162-1.911 16.298-2.35 0-3.321-.543-5.671-1.63-7.05-1.086-1.379-3.195-2.068-6.327-2.068-1.981 0-3.739.47-5.273 1.41-1.47.877-2.461 2.256-2.972 4.136l-12.271-4.324c1.598-3.133 4.25-5.734 7.957-7.802 3.771-2.068 8.373-3.102 13.805-3.102 6.775 0 11.984 1.473 15.627 4.418 3.643 2.945 5.464 7.959 5.464 15.04v10.246c0 2.005.064 4.167.192 6.486a97.97 97.97 0 0 0 .575 6.58c.256 2.068.544 3.791.863 5.17h-13.517l-1.726-5.64c-1.79 2.444-4.059 4.199-6.807 5.264-2.684 1.003-5.72 1.504-9.107 1.504Zm5.368-9.776c2.876 0 5.273-.752 7.191-2.256 1.917-1.504 2.876-4.387 2.876-8.648V90.32c-5.05.439-9.108 1.128-12.176 2.068-3.068.877-4.602 2.538-4.602 4.982 0 1.504.64 2.726 1.918 3.666 1.278.877 2.876 1.316 4.793 1.316ZM690.806 111V64.376h12.751l1.821 6.204c1.087-1.755 2.876-3.447 5.369-5.076 2.492-1.63 5.496-2.444 9.012-2.444 3.77 0 6.774.658 9.011 1.974 2.301 1.316 3.995 3.259 5.081 5.828 1.854-2.57 4.187-4.512 6.999-5.828 2.876-1.316 5.976-1.974 9.299-1.974 6.072 0 10.258 1.692 12.559 5.076 2.301 3.321 3.451 8.147 3.451 14.476V111h-14.572V86.184c0-2.193-.128-4.199-.383-6.016-.256-1.817-.895-3.259-1.918-4.324-1.022-1.128-2.716-1.692-5.081-1.692-2.94 0-5.081 1.034-6.423 3.102-1.342 2.005-2.013 5.045-2.013 9.118V111h-14.668V86.184c0-2.193-.128-4.199-.384-6.016-.191-1.817-.799-3.259-1.821-4.324-.959-1.128-2.589-1.692-4.89-1.692-3.003 0-5.208 1.065-6.615 3.196-1.342 2.13-2.013 5.233-2.013 9.306V111h-14.572Zm83.386 15.134V64.376h12.654l1.918 6.392c1.534-2.57 3.675-4.48 6.423-5.734 2.812-1.316 5.497-1.974 8.053-1.974 4.091 0 7.702 1.003 10.833 3.008 3.196 2.005 5.689 4.857 7.478 8.554 1.79 3.635 2.685 7.99 2.685 13.066 0 5.076-.895 9.463-2.685 13.16-1.789 3.635-4.282 6.423-7.478 8.366-3.131 1.943-6.742 2.914-10.833 2.914-2.556 0-5.241-.658-8.053-1.974-2.748-1.316-4.889-3.259-6.423-5.828v21.808h-14.572Zm24.446-25.098c2.813 0 5.241-1.128 7.286-3.384 2.11-2.256 3.164-5.577 3.164-9.964 0-4.261-1.054-7.583-3.164-9.964-2.045-2.381-4.473-3.572-7.286-3.572-2.876 0-5.368 1.003-7.477 3.008-2.046 2.005-3.068 5.42-3.068 10.246 0 4.763 1.022 8.24 3.068 10.434 2.109 2.13 4.601 3.196 7.477 3.196Z" fill="#86C5FF"/><path d="M42.355 172.42c-2.31 0-4.282-.502-5.915-1.505-1.633-1.027-2.893-2.45-3.78-4.27-.863-1.82-1.295-3.943-1.295-6.37s.455-4.538 1.365-6.335c.933-1.82 2.24-3.232 3.92-4.235 1.68-1.003 3.652-1.505 5.915-1.505 2.053 0 3.873.467 5.46 1.4a8.958 8.958 0 0 1 3.64 3.92l-3.535 1.295a5.728 5.728 0 0 0-2.275-2.38c-.98-.583-2.135-.875-3.465-.875-1.26 0-2.415.338-3.465 1.015-1.027.653-1.843 1.633-2.45 2.94-.607 1.307-.91 2.893-.91 4.76s.292 3.453.875 4.76 1.4 2.31 2.45 3.01c1.073.677 2.275 1.015 3.605 1.015.887 0 1.692-.117 2.415-.35a5.81 5.81 0 0 0 1.96-1.12 5.536 5.536 0 0 0 1.4-1.785l3.535 1.295a9.231 9.231 0 0 1-3.78 3.955c-1.657.91-3.547 1.365-5.67 1.365Zm12.719-.42v-17.36h2.8l.945 3.22c.396-.793.875-1.447 1.435-1.96a5.98 5.98 0 0 1 2.03-1.225c.77-.28 1.621-.408 2.555-.385v3.78c-1.47-.047-2.649.152-3.535.595a3.98 3.98 0 0 0-1.925 2.03c-.397.91-.595 2.053-.595 3.43V172h-3.71Zm19.834.42c-1.844 0-3.43-.385-4.76-1.155a8.248 8.248 0 0 1-3.045-3.22c-.7-1.377-1.05-2.952-1.05-4.725 0-1.843.385-3.442 1.154-4.795.794-1.353 1.844-2.392 3.15-3.115 1.33-.747 2.812-1.12 4.445-1.12 1.377 0 2.602.268 3.675.805a7.667 7.667 0 0 1 2.73 2.205c.724.933 1.249 2.007 1.576 3.22.326 1.19.443 2.462.35 3.815h-13.3c.116.957.35 1.762.7 2.415s.758 1.167 1.224 1.54c.49.373 1.004.642 1.54.805.56.163 1.085.245 1.576.245.91 0 1.68-.14 2.31-.42.653-.303 1.166-.688 1.54-1.155l3.29 1.05c-.7 1.12-1.669 2.007-2.906 2.66-1.236.63-2.636.945-4.2.945Zm-5.04-10.745h9.555a4.356 4.356 0 0 0-.63-2.17 4.176 4.176 0 0 0-1.576-1.61c-.676-.42-1.47-.63-2.38-.63-.723 0-1.446.14-2.17.42-.7.28-1.306.747-1.82 1.4-.49.63-.816 1.493-.98 2.59Zm21.24 10.745c-1.097 0-2.112-.198-3.046-.595-.91-.397-1.645-.968-2.205-1.715-.536-.747-.805-1.645-.805-2.695 0-1.377.479-2.485 1.435-3.325.98-.84 2.357-1.482 4.13-1.925 1.774-.467 3.874-.805 6.3-1.015v-.42c0-1.143-.303-2.042-.91-2.695-.606-.653-1.528-.98-2.765-.98-.956 0-1.761.222-2.415.665-.63.42-1.038 1.027-1.225 1.82l-3.36-1.085c.49-1.283 1.354-2.298 2.59-3.045 1.26-.747 2.73-1.12 4.41-1.12 2.45 0 4.259.572 5.425 1.715 1.19 1.12 1.785 2.917 1.785 5.39v3.99c0 .887.024 1.738.07 2.555.07.793.152 1.54.245 2.24l.315 1.82h-3.43l-.665-2.275c-.56.863-1.33 1.528-2.31 1.995-.956.467-2.146.7-3.57.7Zm1.084-2.765a6.1 6.1 0 0 0 2.38-.455 3.623 3.623 0 0 0 1.715-1.47c.42-.7.63-1.657.63-2.87v-1.12c-2.496.21-4.433.572-5.81 1.085-1.376.513-2.065 1.318-2.065 2.415 0 .723.28 1.307.84 1.75.584.443 1.354.665 2.31.665ZM110.65 172c-1.19 0-2.123-.117-2.8-.35a2.319 2.319 0 0 1-1.435-1.33c-.256-.653-.385-1.598-.385-2.835v-9.94h-2.905v-2.905h2.905v-4.34h3.71v4.34h3.675v2.905h-3.675v9.135c0 .933.129 1.528.385 1.785.257.257.782.385 1.575.385h1.715V172h-2.765Zm13.546.42c-1.844 0-3.43-.385-4.76-1.155a8.243 8.243 0 0 1-3.045-3.22c-.7-1.377-1.05-2.952-1.05-4.725 0-1.843.385-3.442 1.155-4.795.793-1.353 1.843-2.392 3.15-3.115 1.33-.747 2.811-1.12 4.445-1.12 1.376 0 2.601.268 3.675.805a7.677 7.677 0 0 1 2.73 2.205c.723.933 1.248 2.007 1.575 3.22.326 1.19.443 2.462.35 3.815h-13.3c.116.957.35 1.762.7 2.415s.758 1.167 1.225 1.54c.49.373 1.003.642 1.54.805.56.163 1.085.245 1.575.245.91 0 1.68-.14 2.31-.42.653-.303 1.166-.688 1.54-1.155l3.29 1.05c-.7 1.12-1.669 2.007-2.905 2.66-1.237.63-2.637.945-4.2.945Zm-5.04-10.745h9.555a4.369 4.369 0 0 0-.63-2.17 4.184 4.184 0 0 0-1.575-1.61c-.677-.42-1.47-.63-2.38-.63a5.97 5.97 0 0 0-2.17.42c-.7.28-1.307.747-1.82 1.4-.49.63-.817 1.493-.98 2.59Zm31.493 10.745c-1.096 0-2.111-.198-3.045-.595-.91-.397-1.645-.968-2.205-1.715-.536-.747-.805-1.645-.805-2.695 0-1.377.479-2.485 1.435-3.325.98-.84 2.357-1.482 4.13-1.925 1.774-.467 3.874-.805 6.3-1.015v-.42c0-1.143-.303-2.042-.91-2.695-.606-.653-1.528-.98-2.765-.98-.956 0-1.761.222-2.415.665-.63.42-1.038 1.027-1.225 1.82l-3.36-1.085c.49-1.283 1.354-2.298 2.59-3.045 1.26-.747 2.73-1.12 4.41-1.12 2.45 0 4.259.572 5.425 1.715 1.19 1.12 1.785 2.917 1.785 5.39v3.99c0 .887.024 1.738.07 2.555.07.793.152 1.54.245 2.24l.315 1.82h-3.43l-.665-2.275c-.56.863-1.33 1.528-2.31 1.995-.956.467-2.146.7-3.57.7Zm1.085-2.765c.864 0 1.657-.152 2.38-.455a3.62 3.62 0 0 0 1.715-1.47c.42-.7.63-1.657.63-2.87v-1.12c-2.496.21-4.433.572-5.81 1.085-1.376.513-2.065 1.318-2.065 2.415 0 .723.28 1.307.84 1.75.584.443 1.354.665 2.31.665Zm19.926 2.765c-1.75 0-3.255-.385-4.515-1.155-1.237-.793-2.194-1.867-2.87-3.22-.654-1.377-.98-2.952-.98-4.725 0-1.75.35-3.302 1.05-4.655.723-1.377 1.726-2.45 3.01-3.22 1.283-.77 2.788-1.155 4.515-1.155a7.75 7.75 0 0 1 2.87.525c.91.327 1.715.793 2.415 1.4.7.607 1.26 1.342 1.68 2.205l-3.255 1.19a3.636 3.636 0 0 0-1.54-1.645c-.654-.397-1.389-.595-2.205-.595-.794 0-1.552.21-2.275.63-.7.42-1.272 1.062-1.715 1.925-.42.863-.63 1.995-.63 3.395 0 1.377.221 2.52.665 3.43.443.887 1.015 1.54 1.715 1.96.7.42 1.446.63 2.24.63.886 0 1.645-.187 2.275-.56a4.142 4.142 0 0 0 1.505-1.54l3.255 1.19a7.917 7.917 0 0 1-1.855 2.17 8.904 8.904 0 0 1-2.485 1.365 9.027 9.027 0 0 1-2.87.455Zm16.919 0c-1.75 0-3.255-.385-4.515-1.155-1.237-.793-2.194-1.867-2.87-3.22-.654-1.377-.98-2.952-.98-4.725 0-1.75.35-3.302 1.05-4.655.723-1.377 1.726-2.45 3.01-3.22 1.283-.77 2.788-1.155 4.515-1.155a7.75 7.75 0 0 1 2.87.525c.91.327 1.715.793 2.415 1.4.7.607 1.26 1.342 1.68 2.205l-3.255 1.19a3.636 3.636 0 0 0-1.54-1.645c-.654-.397-1.389-.595-2.205-.595-.794 0-1.552.21-2.275.63-.7.42-1.272 1.062-1.715 1.925-.42.863-.63 1.995-.63 3.395 0 1.377.221 2.52.665 3.43.443.887 1.015 1.54 1.715 1.96.7.42 1.446.63 2.24.63.886 0 1.645-.187 2.275-.56a4.142 4.142 0 0 0 1.505-1.54l3.255 1.19a7.917 7.917 0 0 1-1.855 2.17 8.904 8.904 0 0 1-2.485 1.365 9.027 9.027 0 0 1-2.87.455Zm17.409 0c-1.844 0-3.43-.385-4.76-1.155a8.243 8.243 0 0 1-3.045-3.22c-.7-1.377-1.05-2.952-1.05-4.725 0-1.843.385-3.442 1.155-4.795.793-1.353 1.843-2.392 3.15-3.115 1.33-.747 2.811-1.12 4.445-1.12 1.376 0 2.601.268 3.675.805a7.677 7.677 0 0 1 2.73 2.205c.723.933 1.248 2.007 1.575 3.22.326 1.19.443 2.462.35 3.815h-13.3c.116.957.35 1.762.7 2.415s.758 1.167 1.225 1.54c.49.373 1.003.642 1.54.805.56.163 1.085.245 1.575.245.91 0 1.68-.14 2.31-.42.653-.303 1.166-.688 1.54-1.155l3.29 1.05c-.7 1.12-1.669 2.007-2.905 2.66-1.237.63-2.637.945-4.2.945Zm-5.04-10.745h9.555a4.369 4.369 0 0 0-.63-2.17 4.184 4.184 0 0 0-1.575-1.61c-.677-.42-1.47-.63-2.38-.63a5.97 5.97 0 0 0-2.17.42c-.7.28-1.307.747-1.82 1.4-.49.63-.817 1.493-.98 2.59Zm22.849 10.745c-1.12 0-2.205-.163-3.255-.49a8.498 8.498 0 0 1-2.73-1.435 6.213 6.213 0 0 1-1.75-2.45l3.395-1.225c.234.863.782 1.528 1.645 1.995a5.66 5.66 0 0 0 2.73.7c1.05 0 1.949-.21 2.695-.63.747-.443 1.12-1.027 1.12-1.75 0-.63-.268-1.12-.805-1.47-.536-.35-1.4-.642-2.59-.875l-2.345-.49c-1.026-.21-1.948-.513-2.765-.91-.793-.397-1.423-.922-1.89-1.575-.443-.653-.665-1.47-.665-2.45 0-1.073.327-1.995.98-2.765.654-.77 1.517-1.353 2.59-1.75 1.097-.397 2.275-.595 3.535-.595 1.517 0 2.929.303 4.235.91 1.307.583 2.252 1.528 2.835 2.835l-3.325 1.225c-.303-.677-.816-1.19-1.54-1.54-.7-.35-1.493-.525-2.38-.525-.98 0-1.773.187-2.38.56-.606.373-.91.875-.91 1.505 0 .56.21.992.63 1.295.444.28 1.132.525 2.065.735l2.38.49c1.26.257 2.334.583 3.22.98.91.397 1.599.933 2.065 1.61.467.653.7 1.517.7 2.59 0 1.143-.338 2.135-1.015 2.975-.676.817-1.575 1.447-2.695 1.89-1.12.42-2.38.63-3.78.63Zm17.022 0c-1.12 0-2.205-.163-3.255-.49a8.477 8.477 0 0 1-2.73-1.435 6.213 6.213 0 0 1-1.75-2.45l3.395-1.225c.233.863.782 1.528 1.645 1.995.863.467 1.773.7 2.73.7 1.05 0 1.948-.21 2.695-.63.747-.443 1.12-1.027 1.12-1.75 0-.63-.268-1.12-.805-1.47-.537-.35-1.4-.642-2.59-.875l-2.345-.49c-1.027-.21-1.948-.513-2.765-.91-.793-.397-1.423-.922-1.89-1.575-.443-.653-.665-1.47-.665-2.45 0-1.073.327-1.995.98-2.765s1.517-1.353 2.59-1.75c1.097-.397 2.275-.595 3.535-.595 1.517 0 2.928.303 4.235.91 1.307.583 2.252 1.528 2.835 2.835l-3.325 1.225c-.303-.677-.817-1.19-1.54-1.54-.7-.35-1.493-.525-2.38-.525-.98 0-1.773.187-2.38.56-.607.373-.91.875-.91 1.505 0 .56.21.992.63 1.295.443.28 1.132.525 2.065.735l2.38.49c1.26.257 2.333.583 3.22.98.91.397 1.598.933 2.065 1.61.467.653.7 1.517.7 2.59 0 1.143-.338 2.135-1.015 2.975-.677.817-1.575 1.447-2.695 1.89-1.12.42-2.38.63-3.78.63Zm11.771-.42v-14.455H250v-2.905h6.335V172h-3.745Zm1.61-20.51a2.39 2.39 0 0 1-1.75-.735c-.49-.49-.735-1.073-.735-1.75 0-.7.245-1.283.735-1.75a2.39 2.39 0 0 1 1.75-.735c.7 0 1.284.245 1.75.735.49.467.735 1.05.735 1.75 0 .677-.245 1.26-.735 1.75-.466.49-1.05.735-1.75.735Zm16.047 20.93a7.165 7.165 0 0 1-2.275-.35 6.153 6.153 0 0 1-1.89-1.015 5.491 5.491 0 0 1-1.365-1.575l-.735 2.52h-2.975v-24.78h3.71v10.045c.35-.63.805-1.167 1.365-1.61a6.153 6.153 0 0 1 1.89-1.015c.7-.233 1.459-.35 2.275-.35a6.93 6.93 0 0 1 3.78 1.085c1.144.7 2.054 1.727 2.73 3.08.677 1.33 1.015 2.952 1.015 4.865 0 1.913-.338 3.547-1.015 4.9-.676 1.353-1.586 2.392-2.73 3.115a6.93 6.93 0 0 1-3.78 1.085Zm-1.085-3.045c1.354 0 2.45-.525 3.29-1.575.864-1.073 1.295-2.567 1.295-4.48 0-1.913-.431-3.383-1.295-4.41-.84-1.05-1.936-1.575-3.29-1.575-1.353 0-2.461.513-3.325 1.54-.84 1.003-1.26 2.497-1.26 4.48 0 1.307.199 2.415.595 3.325.397.887.934 1.563 1.61 2.03.7.443 1.494.665 2.38.665Zm16.63 2.625c-1.19 0-2.135-.117-2.835-.35-.677-.233-1.155-.665-1.435-1.295-.28-.653-.42-1.563-.42-2.73V147.22h3.71v19.705c0 .77.128 1.283.385 1.54.256.257.828.385 1.715.385h1.295V172h-2.415Zm12.857.42c-1.844 0-3.43-.385-4.76-1.155a8.243 8.243 0 0 1-3.045-3.22c-.7-1.377-1.05-2.952-1.05-4.725 0-1.843.385-3.442 1.155-4.795.793-1.353 1.843-2.392 3.15-3.115 1.33-.747 2.811-1.12 4.445-1.12 1.376 0 2.601.268 3.675.805a7.677 7.677 0 0 1 2.73 2.205c.723.933 1.248 2.007 1.575 3.22.326 1.19.443 2.462.35 3.815h-13.3c.116.957.35 1.762.7 2.415s.758 1.167 1.225 1.54c.49.373 1.003.642 1.54.805.56.163 1.085.245 1.575.245.91 0 1.68-.14 2.31-.42.653-.303 1.166-.688 1.54-1.155l3.29 1.05c-.7 1.12-1.669 2.007-2.905 2.66-1.237.63-2.637.945-4.2.945Zm-5.04-10.745h9.555a4.369 4.369 0 0 0-.63-2.17 4.184 4.184 0 0 0-1.575-1.61c-.677-.42-1.47-.63-2.38-.63a5.97 5.97 0 0 0-2.17.42c-.7.28-1.307.747-1.82 1.4-.49.63-.817 1.493-.98 2.59Z" fill="#fff"/><path d="M327.03 172.25c-1.96 0-3.617-.385-4.97-1.155a7.648 7.648 0 0 1-3.045-3.22c-.677-1.4-1.015-3.022-1.015-4.865 0-1.843.373-3.442 1.12-4.795a8.178 8.178 0 0 1 3.15-3.15c1.353-.747 2.917-1.12 4.69-1.12.98 0 1.983.14 3.01.42a7.826 7.826 0 0 1 2.87 1.4c.91.653 1.645 1.598 2.205 2.835l-4.76 1.75c-.257-.747-.653-1.26-1.19-1.54a3.435 3.435 0 0 0-1.715-.455c-.583 0-1.155.152-1.715.455-.537.28-.98.758-1.33 1.435-.327.677-.49 1.61-.49 2.8 0 1.213.175 2.17.525 2.87.35.7.793 1.202 1.33 1.505.537.28 1.097.42 1.68.42.7 0 1.283-.128 1.75-.385.49-.28.887-.665 1.19-1.155l4.62 1.68c-.607 1.12-1.365 1.995-2.275 2.625a8.356 8.356 0 0 1-2.8 1.26c-.98.257-1.925.385-2.835.385Z" fill="url(#logo-for-github__b)"/><path d="M345.05 172.25c-1.213 0-2.38-.187-3.5-.56a9.082 9.082 0 0 1-3.01-1.68c-.887-.77-1.587-1.727-2.1-2.87-.49-1.167-.735-2.532-.735-4.095 0-1.563.245-2.917.735-4.06.513-1.143 1.213-2.088 2.1-2.835a8.61 8.61 0 0 1 3.01-1.645c1.12-.373 2.287-.56 3.5-.56 1.237 0 2.403.187 3.5.56a8.61 8.61 0 0 1 3.01 1.645c.887.747 1.575 1.692 2.065 2.835.513 1.143.77 2.497.77 4.06 0 1.563-.257 2.928-.77 4.095-.49 1.143-1.178 2.1-2.065 2.87a9.082 9.082 0 0 1-3.01 1.68c-1.097.373-2.263.56-3.5.56Zm0-4.41c.7 0 1.307-.175 1.82-.525.513-.373.91-.91 1.19-1.61.303-.723.455-1.61.455-2.66 0-1.073-.152-1.948-.455-2.625-.303-.7-.712-1.213-1.225-1.54-.513-.35-1.108-.525-1.785-.525a3.2 3.2 0 0 0-1.785.525c-.513.327-.922.84-1.225 1.54-.303.677-.455 1.552-.455 2.625 0 1.05.14 1.937.42 2.66.303.7.712 1.237 1.225 1.61.537.35 1.143.525 1.82.525Z" fill="url(#logo-for-github__c)"/><path d="M363.07 171.83c-1.47 0-2.649-.128-3.535-.385-.887-.257-1.529-.747-1.925-1.47-.374-.723-.56-1.797-.56-3.22V147.05h5.81v17.885c0 .957.14 1.575.42 1.855.28.28.91.42 1.89.42h1.645v4.62h-3.745Z" fill="url(#logo-for-github__d)"/><path d="M377.213 172.25c-1.213 0-2.38-.187-3.5-.56a9.082 9.082 0 0 1-3.01-1.68c-.887-.77-1.587-1.727-2.1-2.87-.49-1.167-.735-2.532-.735-4.095 0-1.563.245-2.917.735-4.06.513-1.143 1.213-2.088 2.1-2.835a8.61 8.61 0 0 1 3.01-1.645c1.12-.373 2.287-.56 3.5-.56 1.237 0 2.403.187 3.5.56 1.12.35 2.124.898 3.01 1.645.887.747 1.575 1.692 2.065 2.835.513 1.143.77 2.497.77 4.06 0 1.563-.257 2.928-.77 4.095-.49 1.143-1.178 2.1-2.065 2.87a9.072 9.072 0 0 1-3.01 1.68c-1.097.373-2.263.56-3.5.56Zm0-4.41c.7 0 1.307-.175 1.82-.525.513-.373.91-.91 1.19-1.61.303-.723.455-1.61.455-2.66 0-1.073-.152-1.948-.455-2.625-.303-.7-.712-1.213-1.225-1.54-.513-.35-1.108-.525-1.785-.525a3.2 3.2 0 0 0-1.785.525c-.513.327-.922.84-1.225 1.54-.303.677-.455 1.552-.455 2.625 0 1.05.14 1.937.42 2.66.303.7.712 1.237 1.225 1.61.537.35 1.143.525 1.82.525Z" fill="url(#logo-for-github__e)"/><path d="M389.318 171.83v-17.36h4.585l.945 3.185c.326-.98.805-1.75 1.435-2.31a5.15 5.15 0 0 1 2.17-1.155 7.035 7.035 0 0 1 2.52-.245v5.74c-1.12-.187-2.124-.175-3.01.035-.887.187-1.587.607-2.1 1.26-.514.63-.77 1.528-.77 2.695v8.155h-5.775Z" fill="url(#logo-for-github__f)"/><path d="M414.406 171.83v-17.36h4.585l.945 3.185c.326-.98.805-1.75 1.435-2.31a5.15 5.15 0 0 1 2.17-1.155 7.035 7.035 0 0 1 2.52-.245v5.74c-1.12-.187-2.124-.175-3.01.035-.887.187-1.587.607-2.1 1.26-.514.63-.77 1.528-.77 2.695v8.155h-5.775Z" fill="url(#logo-for-github__g)"/><path d="M433.392 172.25c-1.19 0-2.252-.21-3.185-.63-.934-.42-1.669-1.015-2.205-1.785-.514-.77-.77-1.668-.77-2.695 0-1.4.466-2.532 1.4-3.395.956-.887 2.298-1.563 4.025-2.03 1.75-.467 3.815-.758 6.195-.875v-.49c0-.933-.257-1.587-.77-1.96-.514-.373-1.214-.56-2.1-.56-.654 0-1.249.175-1.785.525a2.416 2.416 0 0 0-1.085 1.365l-4.9-1.68c.583-1.143 1.563-2.112 2.94-2.905 1.376-.793 3.091-1.19 5.145-1.19 2.566 0 4.561.56 5.985 1.68 1.423 1.097 2.135 2.858 2.135 5.285v4.445c0 .817.023 1.645.07 2.485.046.817.116 1.575.21 2.275.093.7.198 1.272.315 1.715h-5.425l-.595-2.065c-.63.957-1.435 1.61-2.415 1.96-.957.35-2.019.525-3.185.525Zm2.03-3.885c.7 0 1.306-.105 1.82-.315.513-.21.91-.583 1.19-1.12.28-.537.42-1.283.42-2.24v-.455c-2.1.117-3.559.397-4.375.84-.794.42-1.19.945-1.19 1.575 0 .513.198.933.595 1.26.42.303.933.455 1.54.455Z" fill="url(#logo-for-github__h)"/><path d="M447.936 171.83v-17.36h5.145l.63 2.24c.257-.42.63-.84 1.12-1.26.49-.42 1.085-.77 1.785-1.05.7-.303 1.482-.455 2.345-.455 1.4 0 2.508.245 3.325.735.817.467 1.423 1.178 1.82 2.135a6.218 6.218 0 0 1 2.59-2.135 7.93 7.93 0 0 1 3.395-.735c1.517 0 2.695.28 3.535.84.863.56 1.47 1.388 1.82 2.485.35 1.097.525 2.45.525 4.06v10.5h-5.775v-9.065c0-.817-.047-1.552-.14-2.205-.07-.677-.28-1.213-.63-1.61-.327-.397-.898-.595-1.715-.595-1.05 0-1.797.362-2.24 1.085-.42.723-.63 1.808-.63 3.255v9.135h-5.775v-9.065c0-.817-.035-1.552-.105-2.205-.07-.677-.268-1.213-.595-1.61-.327-.397-.887-.595-1.68-.595-.723 0-1.307.175-1.75.525-.42.35-.735.863-.945 1.54-.187.653-.28 1.458-.28 2.415v8.995h-5.775Z" fill="url(#logo-for-github__i)"/><path d="M479.415 177.5v-23.03h5.11l.665 2.31a5.037 5.037 0 0 1 1.47-1.575 7.178 7.178 0 0 1 1.89-.945c.677-.21 1.295-.315 1.855-.315 1.54 0 2.882.373 4.025 1.12 1.167.747 2.065 1.808 2.695 3.185.654 1.377.98 3.01.98 4.9 0 1.89-.326 3.523-.98 4.9-.63 1.353-1.528 2.392-2.695 3.115-1.143.723-2.485 1.085-4.025 1.085-.56 0-1.178-.105-1.855-.315a7.178 7.178 0 0 1-1.89-.945 6.063 6.063 0 0 1-1.47-1.61v8.12h-5.775Zm9.135-9.695c.957 0 1.797-.385 2.52-1.155.724-.793 1.085-1.96 1.085-3.5 0-1.517-.361-2.695-1.085-3.535-.723-.84-1.563-1.26-2.52-1.26-.956 0-1.808.35-2.555 1.05-.723.677-1.085 1.878-1.085 3.605s.362 2.963 1.085 3.71c.747.723 1.599 1.085 2.555 1.085Z" fill="url(#logo-for-github__j)"/><path d="M508.202 172.285c-1.447 0-2.765-.175-3.955-.525-1.19-.35-2.205-.852-3.045-1.505a6.852 6.852 0 0 1-1.925-2.415l4.83-1.785c.21.677.7 1.202 1.47 1.575s1.668.56 2.695.56c.746 0 1.435-.117 2.065-.35.63-.257.945-.642.945-1.155 0-.257-.164-.502-.49-.735-.304-.233-.945-.432-1.925-.595l-3.15-.56c-1.167-.21-2.182-.537-3.045-.98-.864-.443-1.54-1.015-2.03-1.715-.467-.7-.7-1.505-.7-2.415 0-1.19.361-2.205 1.085-3.045.746-.863 1.738-1.528 2.975-1.995 1.236-.467 2.625-.7 4.165-.7 1.726 0 3.325.303 4.795.91 1.493.607 2.59 1.668 3.29 3.185l-4.83 1.785a2.537 2.537 0 0 0-1.19-1.365c-.56-.303-1.272-.455-2.135-.455-.934 0-1.61.128-2.03.385-.42.257-.63.583-.63.98 0 .303.128.56.385.77.28.187.793.338 1.54.455l3.325.595c1.47.257 2.648.595 3.535 1.015.886.42 1.528.968 1.925 1.645.42.653.63 1.47.63 2.45 0 1.33-.385 2.438-1.155 3.325s-1.809 1.552-3.115 1.995c-1.284.443-2.719.665-4.305.665Z" fill="url(#logo-for-github__k)"/><path d="M530.172 172v-14.455h-2.59v-2.905h6.335V172h-3.745Zm1.61-20.51c-.677 0-1.26-.245-1.75-.735s-.735-1.073-.735-1.75c0-.7.245-1.283.735-1.75.49-.49 1.073-.735 1.75-.735.7 0 1.283.245 1.75.735.49.467.735 1.05.735 1.75 0 .677-.245 1.26-.735 1.75-.467.49-1.05.735-1.75.735Zm6.807 20.51v-17.36h2.975l.735 2.52c.303-.513.7-.98 1.19-1.4a5.825 5.825 0 0 1 1.82-1.05c.723-.28 1.563-.42 2.52-.42 1.423 0 2.555.28 3.395.84.84.56 1.446 1.353 1.82 2.38.373 1.027.56 2.24.56 3.64V172h-3.745v-9.835c0-.863-.07-1.657-.21-2.38-.14-.747-.455-1.342-.945-1.785-.467-.443-1.225-.665-2.275-.665-1.307 0-2.322.467-3.045 1.4-.724.91-1.085 2.252-1.085 4.025V172h-3.71Zm34.354 0c-1.19 0-2.135-.117-2.835-.35-.676-.233-1.155-.665-1.435-1.295-.28-.653-.42-1.563-.42-2.73V147.22h3.71v19.705c0 .77.129 1.283.385 1.54.257.257.829.385 1.715.385h1.295V172h-2.415Zm12.857.42c-1.843 0-3.43-.385-4.76-1.155a8.258 8.258 0 0 1-3.045-3.22c-.7-1.377-1.05-2.952-1.05-4.725 0-1.843.385-3.442 1.155-4.795.794-1.353 1.844-2.392 3.15-3.115 1.33-.747 2.812-1.12 4.445-1.12 1.377 0 2.602.268 3.675.805a7.66 7.66 0 0 1 2.73 2.205c.724.933 1.249 2.007 1.575 3.22.327 1.19.444 2.462.35 3.815h-13.3c.117.957.35 1.762.7 2.415s.759 1.167 1.225 1.54c.49.373 1.004.642 1.54.805.56.163 1.085.245 1.575.245.91 0 1.68-.14 2.31-.42.654-.303 1.167-.688 1.54-1.155l3.29 1.05c-.7 1.12-1.668 2.007-2.905 2.66-1.236.63-2.636.945-4.2.945Zm-5.04-10.745h9.555a4.348 4.348 0 0 0-.63-2.17 4.17 4.17 0 0 0-1.575-1.61c-.676-.42-1.47-.63-2.38-.63-.723 0-1.446.14-2.17.42-.7.28-1.306.747-1.82 1.4-.49.63-.816 1.493-.98 2.59Zm22.85 10.745c-1.12 0-2.205-.163-3.255-.49a8.498 8.498 0 0 1-2.73-1.435 6.213 6.213 0 0 1-1.75-2.45l3.395-1.225c.234.863.782 1.528 1.645 1.995a5.66 5.66 0 0 0 2.73.7c1.05 0 1.949-.21 2.695-.63.747-.443 1.12-1.027 1.12-1.75 0-.63-.268-1.12-.805-1.47-.536-.35-1.4-.642-2.59-.875l-2.345-.49c-1.026-.21-1.948-.513-2.765-.91-.793-.397-1.423-.922-1.89-1.575-.443-.653-.665-1.47-.665-2.45 0-1.073.327-1.995.98-2.765.654-.77 1.517-1.353 2.59-1.75 1.097-.397 2.275-.595 3.535-.595 1.517 0 2.929.303 4.235.91 1.307.583 2.252 1.528 2.835 2.835l-3.325 1.225c-.303-.677-.816-1.19-1.54-1.54-.7-.35-1.493-.525-2.38-.525-.98 0-1.773.187-2.38.56-.606.373-.91.875-.91 1.505 0 .56.21.992.63 1.295.444.28 1.132.525 2.065.735l2.38.49c1.26.257 2.334.583 3.22.98.91.397 1.599.933 2.065 1.61.467.653.7 1.517.7 2.59 0 1.143-.338 2.135-1.015 2.975-.676.817-1.575 1.447-2.695 1.89-1.12.42-2.38.63-3.78.63Zm17.022 0c-1.12 0-2.205-.163-3.255-.49a8.477 8.477 0 0 1-2.73-1.435 6.204 6.204 0 0 1-1.75-2.45l3.395-1.225c.233.863.781 1.528 1.645 1.995.863.467 1.773.7 2.73.7 1.05 0 1.948-.21 2.695-.63.746-.443 1.12-1.027 1.12-1.75 0-.63-.269-1.12-.805-1.47-.537-.35-1.4-.642-2.59-.875l-2.345-.49c-1.027-.21-1.949-.513-2.765-.91-.794-.397-1.424-.922-1.89-1.575-.444-.653-.665-1.47-.665-2.45 0-1.073.326-1.995.98-2.765.653-.77 1.516-1.353 2.59-1.75 1.096-.397 2.275-.595 3.535-.595 1.516 0 2.928.303 4.235.91 1.306.583 2.251 1.528 2.835 2.835l-3.325 1.225c-.304-.677-.817-1.19-1.54-1.54-.7-.35-1.494-.525-2.38-.525-.98 0-1.774.187-2.38.56-.607.373-.91.875-.91 1.505 0 .56.21.992.63 1.295.443.28 1.131.525 2.065.735l2.38.49c1.26.257 2.333.583 3.22.98.91.397 1.598.933 2.065 1.61.466.653.7 1.517.7 2.59 0 1.143-.339 2.135-1.015 2.975-.677.817-1.575 1.447-2.695 1.89-1.12.42-2.38.63-3.78.63Zm26.75-.42c-1.19 0-2.123-.117-2.8-.35a2.316 2.316 0 0 1-1.435-1.33c-.257-.653-.385-1.598-.385-2.835v-9.94h-2.905v-2.905h2.905v-4.34h3.71v4.34h3.675v2.905h-3.675v9.135c0 .933.128 1.528.385 1.785.257.257.782.385 1.575.385h1.715V172h-2.765Zm6.29 0v-24.78h3.71v9.94c.303-.513.7-.98 1.19-1.4a5.825 5.825 0 0 1 1.82-1.05c.723-.28 1.563-.42 2.52-.42 1.423 0 2.555.28 3.395.84.84.56 1.446 1.353 1.82 2.38.373 1.027.56 2.24.56 3.64V172h-3.745v-9.835c0-.863-.07-1.657-.21-2.38-.14-.747-.455-1.342-.945-1.785-.467-.443-1.225-.665-2.275-.665-1.307 0-2.322.467-3.045 1.4-.724.91-1.085 2.252-1.085 4.025V172h-3.71Zm24.276.42c-1.097 0-2.112-.198-3.045-.595-.91-.397-1.645-.968-2.205-1.715-.537-.747-.805-1.645-.805-2.695 0-1.377.478-2.485 1.435-3.325.98-.84 2.356-1.482 4.13-1.925 1.773-.467 3.873-.805 6.3-1.015v-.42c0-1.143-.304-2.042-.91-2.695-.607-.653-1.529-.98-2.765-.98-.957 0-1.762.222-2.415.665-.63.42-1.039 1.027-1.225 1.82l-3.36-1.085c.49-1.283 1.353-2.298 2.59-3.045 1.26-.747 2.73-1.12 4.41-1.12 2.45 0 4.258.572 5.425 1.715 1.19 1.12 1.785 2.917 1.785 5.39v3.99c0 .887.023 1.738.07 2.555.07.793.151 1.54.245 2.24.116.677.221 1.283.315 1.82h-3.43l-.665-2.275c-.56.863-1.33 1.528-2.31 1.995-.957.467-2.147.7-3.57.7Zm1.085-2.765c.863 0 1.656-.152 2.38-.455a3.625 3.625 0 0 0 1.715-1.47c.42-.7.63-1.657.63-2.87v-1.12c-2.497.21-4.434.572-5.81 1.085-1.377.513-2.065 1.318-2.065 2.415 0 .723.28 1.307.84 1.75.583.443 1.353.665 2.31.665ZM691.987 172v-17.36h2.975l.735 2.52c.303-.513.7-.98 1.19-1.4a5.825 5.825 0 0 1 1.82-1.05c.723-.28 1.563-.42 2.52-.42 1.423 0 2.555.28 3.395.84.84.56 1.447 1.353 1.82 2.38s.56 2.24.56 3.64V172h-3.745v-9.835c0-.863-.07-1.657-.21-2.38-.14-.747-.455-1.342-.945-1.785-.467-.443-1.225-.665-2.275-.665-1.307 0-2.322.467-3.045 1.4-.723.91-1.085 2.252-1.085 4.025V172h-3.71Zm37.68.42c-1.493 0-2.8-.233-3.92-.7-1.12-.49-2.042-1.155-2.765-1.995a8.773 8.773 0 0 1-1.645-2.87l3.43-1.12c.303 1.237.852 2.17 1.645 2.8.817.63 1.867.945 3.15.945.91 0 1.727-.198 2.45-.595a4.68 4.68 0 0 0 1.785-1.785c.443-.77.665-1.703.665-2.8 0-1.19-.245-2.158-.735-2.905-.467-.747-1.073-1.295-1.82-1.645a5.113 5.113 0 0 0-2.31-.56c-.747 0-1.4.128-1.96.385a4.718 4.718 0 0 0-1.435.91c-.397.373-.7.77-.91 1.19l-3.465-1.12 1.435-11.935h14.14v3.29h-11.095l-.735 5.95c.607-.607 1.353-1.027 2.24-1.26a9.636 9.636 0 0 1 2.695-.385c1.377 0 2.66.315 3.85.945 1.19.607 2.147 1.505 2.87 2.695.747 1.19 1.12 2.672 1.12 4.445 0 1.773-.408 3.267-1.225 4.48a7.63 7.63 0 0 1-3.22 2.73c-1.307.607-2.718.91-4.235.91Zm29.563 0c-1.12 0-2.205-.163-3.255-.49a8.498 8.498 0 0 1-2.73-1.435 6.213 6.213 0 0 1-1.75-2.45l3.395-1.225c.234.863.782 1.528 1.645 1.995a5.66 5.66 0 0 0 2.73.7c1.05 0 1.949-.21 2.695-.63.747-.443 1.12-1.027 1.12-1.75 0-.63-.268-1.12-.805-1.47-.536-.35-1.4-.642-2.59-.875l-2.345-.49c-1.026-.21-1.948-.513-2.765-.91-.793-.397-1.423-.922-1.89-1.575-.443-.653-.665-1.47-.665-2.45 0-1.073.327-1.995.98-2.765.654-.77 1.517-1.353 2.59-1.75 1.097-.397 2.275-.595 3.535-.595 1.517 0 2.929.303 4.235.91 1.307.583 2.252 1.528 2.835 2.835l-3.325 1.225c-.303-.677-.816-1.19-1.54-1.54-.7-.35-1.493-.525-2.38-.525-.98 0-1.773.187-2.38.56-.606.373-.91.875-.91 1.505 0 .56.21.992.63 1.295.444.28 1.132.525 2.065.735l2.38.49c1.26.257 2.334.583 3.22.98.91.397 1.599.933 2.065 1.61.467.653.7 1.517.7 2.59 0 1.143-.338 2.135-1.015 2.975-.676.817-1.575 1.447-2.695 1.89-1.12.42-2.38.63-3.78.63Zm18.387 0c-1.843 0-3.43-.385-4.76-1.155a8.243 8.243 0 0 1-3.045-3.22c-.7-1.377-1.05-2.952-1.05-4.725 0-1.843.385-3.442 1.155-4.795.793-1.353 1.843-2.392 3.15-3.115 1.33-.747 2.812-1.12 4.445-1.12 1.377 0 2.602.268 3.675.805a7.66 7.66 0 0 1 2.73 2.205c.723.933 1.248 2.007 1.575 3.22.327 1.19.443 2.462.35 3.815h-13.3c.117.957.35 1.762.7 2.415s.758 1.167 1.225 1.54c.49.373 1.003.642 1.54.805.56.163 1.085.245 1.575.245.91 0 1.68-.14 2.31-.42.653-.303 1.167-.688 1.54-1.155l3.29 1.05c-.7 1.12-1.668 2.007-2.905 2.66-1.237.63-2.637.945-4.2.945Zm-5.04-10.745h9.555a4.348 4.348 0 0 0-.63-2.17 4.17 4.17 0 0 0-1.575-1.61c-.677-.42-1.47-.63-2.38-.63-.723 0-1.447.14-2.17.42-.7.28-1.307.747-1.82 1.4-.49.63-.817 1.493-.98 2.59Zm23.725 10.745c-1.75 0-3.255-.385-4.515-1.155-1.237-.793-2.194-1.867-2.87-3.22-.654-1.377-.98-2.952-.98-4.725 0-1.75.35-3.302 1.05-4.655.723-1.377 1.726-2.45 3.01-3.22 1.283-.77 2.788-1.155 4.515-1.155a7.75 7.75 0 0 1 2.87.525c.91.327 1.715.793 2.415 1.4.7.607 1.26 1.342 1.68 2.205l-3.255 1.19a3.636 3.636 0 0 0-1.54-1.645c-.654-.397-1.389-.595-2.205-.595-.794 0-1.552.21-2.275.63-.7.42-1.272 1.062-1.715 1.925-.42.863-.63 1.995-.63 3.395 0 1.377.221 2.52.665 3.43.443.887 1.015 1.54 1.715 1.96.7.42 1.446.63 2.24.63.886 0 1.645-.187 2.275-.56a4.142 4.142 0 0 0 1.505-1.54l3.255 1.19a7.917 7.917 0 0 1-1.855 2.17 8.904 8.904 0 0 1-2.485 1.365 9.027 9.027 0 0 1-2.87.455Zm17.199 0a9.693 9.693 0 0 1-3.15-.525 7.768 7.768 0 0 1-2.765-1.645c-.817-.747-1.482-1.692-1.995-2.835-.49-1.143-.735-2.497-.735-4.06 0-1.563.245-2.917.735-4.06.513-1.143 1.178-2.088 1.995-2.835a7.768 7.768 0 0 1 2.765-1.645 9.693 9.693 0 0 1 3.15-.525c1.073 0 2.111.175 3.115.525a7.785 7.785 0 0 1 2.765 1.645c.816.747 1.47 1.692 1.96 2.835.513 1.143.77 2.497.77 4.06 0 1.563-.257 2.917-.77 4.06-.49 1.143-1.144 2.088-1.96 2.835a7.785 7.785 0 0 1-2.765 1.645 9.395 9.395 0 0 1-3.115.525Zm0-3.08c.816 0 1.575-.198 2.275-.595.723-.42 1.306-1.073 1.75-1.96.443-.887.665-2.03.665-3.43 0-1.4-.222-2.532-.665-3.395-.444-.887-1.027-1.54-1.75-1.96-.7-.42-1.459-.63-2.275-.63-.817 0-1.587.21-2.31.63-.724.42-1.307 1.073-1.75 1.96-.444.863-.665 1.995-.665 3.395s.221 2.543.665 3.43c.443.887 1.026 1.54 1.75 1.96a4.726 4.726 0 0 0 2.31.595Zm12.06 2.66v-17.36h2.975l.735 2.52c.304-.513.7-.98 1.19-1.4a5.837 5.837 0 0 1 1.82-1.05c.724-.28 1.564-.42 2.52-.42 1.424 0 2.555.28 3.395.84.84.56 1.447 1.353 1.82 2.38.374 1.027.56 2.24.56 3.64V172h-3.745v-9.835c0-.863-.07-1.657-.21-2.38-.14-.747-.455-1.342-.945-1.785-.466-.443-1.225-.665-2.275-.665-1.306 0-2.321.467-3.045 1.4-.723.91-1.085 2.252-1.085 4.025V172h-3.71Zm25.921.42a7.048 7.048 0 0 1-3.78-1.085c-1.143-.723-2.053-1.762-2.73-3.115-.677-1.353-1.015-2.987-1.015-4.9 0-1.913.338-3.535 1.015-4.865.677-1.353 1.587-2.38 2.73-3.08a7.048 7.048 0 0 1 3.78-1.085c1.237 0 2.333.268 3.29.805a5.57 5.57 0 0 1 2.24 2.17V147.22h3.71v18.165c0 .677.035 1.587.105 2.73.07 1.143.233 2.438.49 3.885h-3.5l-.735-2.485a6.061 6.061 0 0 1-2.31 2.17c-.957.49-2.053.735-3.29.735Zm1.085-3.045c.91 0 1.703-.222 2.38-.665.677-.467 1.213-1.143 1.61-2.03.397-.91.595-2.018.595-3.325 0-1.983-.432-3.477-1.295-4.48-.84-1.027-1.937-1.54-3.29-1.54s-2.462.525-3.325 1.575c-.84 1.027-1.26 2.497-1.26 4.41 0 1.913.42 3.407 1.26 4.48.863 1.05 1.972 1.575 3.325 1.575Zm19.08 3.045c-1.12 0-2.205-.163-3.255-.49a8.498 8.498 0 0 1-2.73-1.435 6.213 6.213 0 0 1-1.75-2.45l3.395-1.225c.234.863.782 1.528 1.645 1.995a5.66 5.66 0 0 0 2.73.7c1.05 0 1.949-.21 2.695-.63.747-.443 1.12-1.027 1.12-1.75 0-.63-.268-1.12-.805-1.47-.536-.35-1.4-.642-2.59-.875l-2.345-.49c-1.026-.21-1.948-.513-2.765-.91-.793-.397-1.423-.922-1.89-1.575-.443-.653-.665-1.47-.665-2.45 0-1.073.327-1.995.98-2.765.654-.77 1.517-1.353 2.59-1.75 1.097-.397 2.275-.595 3.535-.595 1.517 0 2.929.303 4.235.91 1.307.583 2.252 1.528 2.835 2.835l-3.325 1.225c-.303-.677-.816-1.19-1.54-1.54-.7-.35-1.493-.525-2.38-.525-.98 0-1.773.187-2.38.56-.606.373-.91.875-.91 1.505 0 .56.21.992.63 1.295.444.28 1.132.525 2.065.735l2.38.49c1.26.257 2.334.583 3.22.98.91.397 1.599.933 2.065 1.61.467.653.7 1.517.7 2.59 0 1.143-.338 2.135-1.015 2.975-.676.817-1.575 1.447-2.695 1.89-1.12.42-2.38.63-3.78.63Zm10.267 4.375 1.715-4.445a2.64 2.64 0 0 1-1.54-.91 2.594 2.594 0 0 1-.595-1.68c0-.723.257-1.342.77-1.855a2.53 2.53 0 0 1 1.855-.77c.747 0 1.377.268 1.89.805a2.53 2.53 0 0 1 .77 1.855c0 .163-.023.338-.07.525-.047.187-.093.362-.14.525l-2.345 5.95h-2.31ZM900.825 172v-17.36h2.975l.735 2.52c.303-.513.7-.98 1.19-1.4a5.825 5.825 0 0 1 1.82-1.05c.723-.28 1.563-.42 2.52-.42 1.423 0 2.555.28 3.395.84.84.56 1.447 1.353 1.82 2.38s.56 2.24.56 3.64V172h-3.745v-9.835c0-.863-.07-1.657-.21-2.38-.14-.747-.455-1.342-.945-1.785-.467-.443-1.225-.665-2.275-.665-1.307 0-2.322.467-3.045 1.4-.723.91-1.085 2.252-1.085 4.025V172h-3.71Zm27.041.42a9.693 9.693 0 0 1-3.15-.525 7.768 7.768 0 0 1-2.765-1.645c-.817-.747-1.482-1.692-1.995-2.835-.49-1.143-.735-2.497-.735-4.06 0-1.563.245-2.917.735-4.06.513-1.143 1.178-2.088 1.995-2.835a7.768 7.768 0 0 1 2.765-1.645 9.693 9.693 0 0 1 3.15-.525c1.073 0 2.111.175 3.115.525a7.785 7.785 0 0 1 2.765 1.645c.816.747 1.47 1.692 1.96 2.835.513 1.143.77 2.497.77 4.06 0 1.563-.257 2.917-.77 4.06-.49 1.143-1.144 2.088-1.96 2.835a7.785 7.785 0 0 1-2.765 1.645 9.395 9.395 0 0 1-3.115.525Zm0-3.08c.816 0 1.575-.198 2.275-.595.723-.42 1.306-1.073 1.75-1.96.443-.887.665-2.03.665-3.43 0-1.4-.222-2.532-.665-3.395-.444-.887-1.027-1.54-1.75-1.96-.7-.42-1.459-.63-2.275-.63-.817 0-1.587.21-2.31.63-.724.42-1.307 1.073-1.75 1.96-.444.863-.665 1.995-.665 3.395s.221 2.543.665 3.43c.443.887 1.026 1.54 1.75 1.96a4.726 4.726 0 0 0 2.31.595Zm22.49 2.66v-23.38h9.45c1.703 0 3.15.257 4.34.77 1.19.49 2.088 1.19 2.695 2.1.63.91.945 1.972.945 3.185a5.7 5.7 0 0 1-.77 2.905c-.49.863-1.284 1.563-2.38 2.1 1.446.537 2.496 1.295 3.15 2.275.653.957.98 2.042.98 3.255 0 1.33-.339 2.508-1.015 3.535-.677 1.027-1.645 1.832-2.905 2.415-1.26.56-2.777.84-4.55.84h-9.94Zm4.025-3.36h5.915c1.003 0 1.82-.163 2.45-.49.653-.327 1.131-.758 1.435-1.295.303-.56.455-1.167.455-1.82 0-1.003-.35-1.832-1.05-2.485-.7-.677-1.797-1.015-3.29-1.015h-5.915v7.105Zm0-10.255h5.635c1.283 0 2.216-.303 2.8-.91.583-.607.875-1.377.875-2.31 0-.98-.327-1.762-.98-2.345-.654-.583-1.622-.875-2.905-.875h-5.425v6.44Zm25.865 14.035c-1.424 0-2.765-.21-4.025-.63-1.26-.42-2.357-1.05-3.29-1.89-.91-.84-1.587-1.89-2.03-3.15l3.675-1.295a4.53 4.53 0 0 0 1.225 2.03 5.907 5.907 0 0 0 2.065 1.225 8.339 8.339 0 0 0 2.52.385c.91 0 1.75-.128 2.52-.385.793-.257 1.423-.653 1.89-1.19.49-.537.735-1.225.735-2.065 0-.91-.327-1.622-.98-2.135-.654-.513-1.832-.968-3.535-1.365l-3.045-.7c-1.354-.303-2.52-.712-3.5-1.225-.957-.537-1.704-1.225-2.24-2.065-.514-.84-.77-1.843-.77-3.01 0-1.027.221-1.948.665-2.765a6.445 6.445 0 0 1 1.925-2.135c.816-.607 1.761-1.062 2.835-1.365 1.096-.327 2.275-.49 3.535-.49 1.166 0 2.298.163 3.395.49a8.792 8.792 0 0 1 2.94 1.505c.886.677 1.563 1.552 2.03 2.625l-3.64 1.295a3.755 3.755 0 0 0-1.19-1.435 4.779 4.779 0 0 0-1.715-.875 7.474 7.474 0 0 0-2.065-.28c-.817 0-1.587.117-2.31.35-.724.233-1.307.595-1.75 1.085-.42.467-.63 1.05-.63 1.75 0 .817.303 1.47.91 1.96.606.467 1.411.817 2.415 1.05l3.255.7c1.493.35 2.8.782 3.92 1.295 1.12.49 1.995 1.178 2.625 2.065.63.863.945 2.007.945 3.43 0 1.54-.432 2.847-1.295 3.92-.864 1.073-2.007 1.89-3.43 2.45-1.4.56-2.929.84-4.585.84Zm14.582 0c-.747 0-1.377-.257-1.89-.77-.514-.537-.77-1.167-.77-1.89 0-.723.256-1.342.77-1.855a2.511 2.511 0 0 1 1.89-.805c.723 0 1.341.268 1.855.805a2.53 2.53 0 0 1 .77 1.855c0 .723-.257 1.353-.77 1.89a2.531 2.531 0 0 1-1.855.77Z" fill="#fff"/><defs><linearGradient id="logo-for-github__b" x1="318" y1="162.275" x2="516.777" y2="162.275" gradientUnits="userSpaceOnUse"><stop stop-color="#B600B9"/><stop offset=".5" stop-color="#04DA00"/><stop offset="1" stop-color="#006DD3"/></linearGradient><linearGradient id="logo-for-github__c" x1="318" y1="162.275" x2="516.777" y2="162.275" gradientUnits="userSpaceOnUse"><stop stop-color="#B600B9"/><stop offset=".5" stop-color="#04DA00"/><stop offset="1" stop-color="#006DD3"/></linearGradient><linearGradient id="logo-for-github__d" x1="318" y1="162.275" x2="516.777" y2="162.275" gradientUnits="userSpaceOnUse"><stop stop-color="#B600B9"/><stop offset=".5" stop-color="#04DA00"/><stop offset="1" stop-color="#006DD3"/></linearGradient><linearGradient id="logo-for-github__e" x1="318" y1="162.275" x2="516.777" y2="162.275" gradientUnits="userSpaceOnUse"><stop stop-color="#B600B9"/><stop offset=".5" stop-color="#04DA00"/><stop offset="1" stop-color="#006DD3"/></linearGradient><linearGradient id="logo-for-github__f" x1="318" y1="162.275" x2="516.777" y2="162.275" gradientUnits="userSpaceOnUse"><stop stop-color="#B600B9"/><stop offset=".5" stop-color="#04DA00"/><stop offset="1" stop-color="#006DD3"/></linearGradient><linearGradient id="logo-for-github__g" x1="318" y1="162.275" x2="516.777" y2="162.275" gradientUnits="userSpaceOnUse"><stop stop-color="#B600B9"/><stop offset=".5" stop-color="#04DA00"/><stop offset="1" stop-color="#006DD3"/></linearGradient><linearGradient id="logo-for-github__h" x1="318" y1="162.275" x2="516.777" y2="162.275" gradientUnits="userSpaceOnUse"><stop stop-color="#B600B9"/><stop offset=".5" stop-color="#04DA00"/><stop offset="1" stop-color="#006DD3"/></linearGradient><linearGradient id="logo-for-github__i" x1="318" y1="162.275" x2="516.777" y2="162.275" gradientUnits="userSpaceOnUse"><stop stop-color="#B600B9"/><stop offset=".5" stop-color="#04DA00"/><stop offset="1" stop-color="#006DD3"/></linearGradient><linearGradient id="logo-for-github__j" x1="318" y1="162.275" x2="516.777" y2="162.275" gradientUnits="userSpaceOnUse"><stop stop-color="#B600B9"/><stop offset=".5" stop-color="#04DA00"/><stop offset="1" stop-color="#006DD3"/></linearGradient><linearGradient id="logo-for-github__k" x1="318" y1="162.275" x2="516.777" y2="162.275" gradientUnits="userSpaceOnUse"><stop stop-color="#B600B9"/><stop offset=".5" stop-color="#04DA00"/><stop offset="1" stop-color="#006DD3"/></linearGradient></defs></svg>