<svg xmlns="http://www.w3.org/2000/svg" width="49" height="48" fill="none"><path fill="#8CC84B" d="M26 3.45a3.68 3.68 0 0 0-3.51 0L6.48 12.28a3.23 3.23 0 0 0-1.73 2.82v17.8c0 1.18.73 2.3 1.8 2.84 1.53.82 3.02 1.72 4.58 2.48a6.72 6.72 0 0 0 5.88.16c1.48-.77 2.14-2.47 2.14-4.04.01-5.87 0-11.74 0-17.62.04-.26-.16-.54-.44-.53h-2.05c-.26-.03-.5.19-.49.45v17.5c.01.81-.53 1.59-1.31 1.86-1.8.63-6.93-2.7-6.93-2.7a.5.5 0 0 1-.29-.5V15.2a.54.54 0 0 1 .34-.55l15.96-8.8a.58.58 0 0 1 .62 0l15.96 8.8c.22.1.36.3.34.54v17.62c.01.2-.1.4-.3.5-5.26 2.9-10.6 5.73-15.81 8.72-.23.13-.49.28-.74.14-1.38-.76-2.73-1.55-4.1-2.32-.15-.09-.34-.13-.5-.03-.61.33-1.19.59-1.9.87-.98.39-.82.55.07 1.07 1.6.9 3.2 1.8 4.8 2.72 1.06.65 2.47.7 3.56.1l16.01-8.84a3.26 3.26 0 0 0 1.8-2.84V15.1a3.22 3.22 0 0 0-1.67-2.78L26 3.45Z"/><path fill="#8CC84B" d="M34.06 16.8c-2.1-1.11-4.58-1.17-6.91-1.02-1.68.16-3.45.63-4.68 1.83a4.49 4.49 0 0 0-.93 4.75c.43 1.12 1.5 1.85 2.62 2.23 1.43.5 2.94.67 4.44.82 1.38.14 2.75.29 4.07.7.54.18 1.17.45 1.34 1.04.15.7-.02 1.5-.58 1.98-1.8 1.42-6.78 1.2-8.56.09-.71-.48-1.02-1.32-1.15-2.12-.01-.25-.21-.48-.48-.46H21.2c-.24-.03-.49.14-.5.39-.14 3.67 3.24 5.28 6.4 5.63 1.82.17 3.67.16 5.45-.23a6.76 6.76 0 0 0 3.6-1.9 4.82 4.82 0 0 0 .86-4.68c-.4-1.17-1.5-1.91-2.65-2.3a22.02 22.02 0 0 0-4.79-.95c-2.04-.2-4.46-.11-5.04-1.45-.23-.7-.03-1.58.61-2.01 1.7-1.16 5.18-1 6.95-.14.81.4 1.28 1.24 1.48 2.08.03.25.2.51.48.5h2.03c.23.02.49-.11.53-.35a5.09 5.09 0 0 0-2.55-4.42Z"/></svg>