<svg xmlns="http://www.w3.org/2000/svg" width="594" height="97" fill="none"><path fill="#80C2FF" d="M68.7 16.72c4.6-4.64 12.45-1.35 12.45 5.21v53.25a7.33 7.33 0 0 1-7.3 7.37h-52.7c-6.49 0-9.74-7.94-5.15-12.58l52.7-53.25Zm5.15 63.83h.2-.2Zm.36-.01.1-.01h-.1Zm.26-.03Zm-54.16-.02h.06-.06Zm54.43-.01.1-.03-.1.03Zm-54.63-.03h.04-.04Zm54.86-.02Zm-55.05-.02h.03-.03Zm-.21-.05.1.02-.1-.02Zm55.53 0 .12-.03-.12.03Zm.24-.07Zm-56.13-.05.02.01h-.02Zm56.38-.04Zm.25-.1.1-.04-.1.04Zm.23-.1.1-.05-.1.04Zm-57.67-.13Zm57.88.01Zm-58.2-.21.15.1-.16-.1Zm58.43.08.11-.08-.11.08Zm.2-.14Zm-58.97-.18Zm59.19.02.07-.05-.07.05Zm-59.46-.25.16.14-.16-.14Zm59.66.1.07-.07-.07.06Zm.19-.18.07-.06-.07.06Zm-60.13-.2.16.16-.16-.17Zm60.3.03Zm-60.54-.31.15.18-.15-.18Zm60.71.13Zm.16-.19Zm-61.1-.23.13.17-.12-.17Zm61.27.02Zm-61.52-.4Zm61.66.2Zm.14-.23Zm-61.92-.19.09.15-.09-.15Zm62.04-.02.07-.14-.07.14Zm.12-.24.06-.13-.06.13Zm.1-.23.05-.13-.05.13Zm-62.74-.74Zm63.07-.4Zm-63.15.05.06.24-.06-.24Zm-.06-.38.02.15-.02-.15Zm-.03-.37.02.22-.02-.22Zm0-.37v.16-.16Zm.02-.39-.02.21c0-.07 0-.14.02-.2Zm.04-.37-.03.23.03-.23Zm.08-.37-.05.2.05-.2Zm.1-.37Zm.28-.7-.03.05.03-.04Zm.2-.39Zm.24-.37-.08.12.08-.12ZM79.1 76l.01-.06v.06Z"/><path fill="#005CB3" d="M0 77.44V19.4C0 8.99 8.05.42 18.14.42h58.72C86.96.42 95 8.98 95 19.39v58.05c0 10.4-8.05 18.98-18.14 18.98H18.14C8.04 96.42 0 87.85 0 77.44Z"/><path fill="#B3DAFF" d="M1.98 19.39c0-9.37 7.23-16.97 16.16-16.97h58.72c8.93 0 16.16 7.6 16.16 16.97v58.05c0 9.38-7.23 16.98-16.16 16.98H18.14c-8.93 0-16.16-7.6-16.16-16.98V19.4Z"/><mask id="a" width="65" height="65" x="15" y="16" maskUnits="userSpaceOnUse" style="mask-type:alpha"><path fill="#333" d="M70.1 18.13a5.3 5.3 0 0 1 9.07 3.8v53.25a5.34 5.34 0 0 1-5.32 5.37h-52.7c-4.73 0-7.1-5.78-3.75-9.16l52.7-53.26Z"/></mask><g mask="url(#a)"><path fill="#005CB3" d="M15.83-51.45h21.11v200H15.83z"/><path fill="#004280" d="M36.94-51.45h21.11v200H36.94z"/><path fill="#000F1F" d="M58.06-51.45h21.11v200H58.06z"/></g><path fill="#B3DAFF" d="M121.79 82.18c-6.66 0-12.39-1.35-17.19-4.04a27.03 27.03 0 0 1-11.04-11.52c-2.56-4.99-3.84-10.88-3.84-17.66 0-6.78 1.32-12.64 3.94-17.57 2.69-5 6.46-8.83 11.33-11.52 4.86-2.75 10.59-4.13 17.18-4.13 6.08 0 11.36 1.35 15.84 4.04a27.49 27.49 0 0 1 10.47 10.84l-13.44 4.9a12.11 12.11 0 0 0-5.76-5.57 17.52 17.52 0 0 0-7.59-1.73c-2.94 0-5.63.84-8.06 2.5a16.12 16.12 0 0 0-5.76 7.1c-1.41 3.08-2.12 6.79-2.12 11.14 0 6.72 1.54 11.87 4.61 15.46a14.85 14.85 0 0 0 11.52 5.28c2.44 0 4.93-.52 7.5-1.54a11.72 11.72 0 0 0 6.13-5.66l13.35 4.9a28.3 28.3 0 0 1-10.95 10.84c-4.67 2.62-10.04 3.94-16.12 3.94ZM174.91 82.18c-4.41 0-8.54-.9-12.38-2.7a21.84 21.84 0 0 1-9.31-8.25c-2.37-3.77-3.55-8.51-3.55-14.2 0-5.77 1.18-10.47 3.55-14.12a21.21 21.21 0 0 1 9.31-8.16 28.92 28.92 0 0 1 12.38-2.69c4.36 0 8.45.9 12.3 2.7a21.21 21.21 0 0 1 9.3 8.15c2.37 3.65 3.56 8.35 3.56 14.11 0 5.7-1.19 10.44-3.56 14.21a21.84 21.84 0 0 1-9.3 8.26 28.7 28.7 0 0 1-12.3 2.69Zm0-11.33a9.43 9.43 0 0 0 7.3-3.17c1.98-2.11 2.98-5.66 2.98-10.66 0-5.05-1.03-8.57-3.07-10.56a9.66 9.66 0 0 0-7.2-3.07c-2.88 0-5.35 1.03-7.4 3.07-1.98 1.99-2.97 5.5-2.97 10.56 0 5 .99 8.55 2.97 10.66a9.73 9.73 0 0 0 7.4 3.17ZM220.94 81.02c-3.9 0-7.01-.32-9.31-.96a8.03 8.03 0 0 1-5-3.93c-.96-1.99-1.44-4.83-1.44-8.55V16.9h14.6v46.84c0 2.24.44 3.72 1.34 4.42.9.64 2.56.96 5 .96h4.12v11.9h-9.31ZM256.13 82.18c-4.41 0-8.54-.9-12.38-2.7a21.84 21.84 0 0 1-9.31-8.25c-2.37-3.77-3.55-8.51-3.55-14.2 0-5.77 1.18-10.47 3.55-14.12a21.21 21.21 0 0 1 9.31-8.16 28.92 28.92 0 0 1 12.38-2.69c4.36 0 8.45.9 12.3 2.7a21.21 21.21 0 0 1 9.3 8.15c2.37 3.65 3.56 8.35 3.56 14.11 0 5.7-1.19 10.44-3.56 14.21a21.84 21.84 0 0 1-9.3 8.26 28.7 28.7 0 0 1-12.3 2.69Zm0-11.33a9.43 9.43 0 0 0 7.3-3.17c1.98-2.11 2.98-5.66 2.98-10.66 0-5.05-1.03-8.57-3.08-10.56a9.66 9.66 0 0 0-7.2-3.07c-2.88 0-5.34 1.03-7.39 3.07-1.98 1.99-2.97 5.5-2.97 10.56 0 5 .99 8.55 2.97 10.66a9.73 9.73 0 0 0 7.4 3.17ZM286.41 81.02V33.41h11.52l2.6 8.73c1.47-3.84 3.48-6.52 6.04-8.06 2.56-1.54 5.67-2.2 9.31-2.02v14.6c-.76-.13-1.44-.2-2.01-.2a17.5 17.5 0 0 0-1.92-.1c-3.52 0-6.24.84-8.16 2.5-1.86 1.67-2.79 4.39-2.79 8.16v24h-14.59ZM348.3 81.02V16.9h24.68c5.57 0 10.53.54 14.88 1.63 4.41 1.09 7.87 3.07 10.37 5.95 2.56 2.88 3.84 6.98 3.84 12.29 0 2.43-.45 4.86-1.35 7.3a16.63 16.63 0 0 1-4.7 6.52c-2.18 1.99-5.31 3.52-9.41 4.6l18.62 25.83h-17.56l-17.38-24.19h-6.82v24.2h-15.16Zm15.17-36.86h9.99c3.58 0 6.56-.45 8.93-1.34 2.43-.96 3.64-2.92 3.64-5.86 0-3-1.21-4.96-3.64-5.86-2.37-.96-5.35-1.44-8.93-1.44h-9.99v14.5ZM423.61 82.18c-3 0-5.76-.58-8.25-1.73a14.78 14.78 0 0 1-5.95-4.8 12.76 12.76 0 0 1-2.21-7.5c0-3.9 1.34-7 4.03-9.3 2.75-2.3 6.5-4.03 11.23-5.19a100.45 100.45 0 0 1 16.32-2.4c0-3.39-.54-5.79-1.63-7.2-1.09-1.4-3.2-2.1-6.34-2.1-1.98 0-3.74.47-5.28 1.43a6.72 6.72 0 0 0-2.97 4.23l-12.29-4.42c1.6-3.2 4.26-5.86 7.97-7.97 3.77-2.11 8.38-3.17 13.82-3.17 6.79 0 12 1.5 15.65 4.52 3.65 3 5.47 8.12 5.47 15.36V62.4a123.2 123.2 0 0 0 .77 13.34c.26 2.12.54 3.88.86 5.28h-13.53l-1.73-5.76a15.1 15.1 0 0 1-6.82 5.38 25.47 25.47 0 0 1-9.12 1.54Zm5.38-9.99c2.88 0 5.28-.77 7.2-2.3 1.92-1.54 2.88-4.48 2.88-8.83V59.9c-5.06.45-9.12 1.16-12.2 2.12-3.06.9-4.6 2.59-4.6 5.08 0 1.54.64 2.79 1.92 3.75a8.17 8.17 0 0 0 4.8 1.34ZM460.76 81.02V33.41h12.76l1.83 6.33c1.09-1.79 2.88-3.52 5.38-5.18 2.5-1.66 5.5-2.5 9.02-2.5 3.77 0 6.78.68 9.02 2.02 2.3 1.34 4 3.33 5.1 5.95 1.85-2.62 4.18-4.6 7-5.95a21.75 21.75 0 0 1 9.31-2.02c6.08 0 10.27 1.73 12.58 5.19 2.3 3.39 3.45 8.32 3.45 14.78v29h-14.59V55.67c0-2.24-.13-4.29-.38-6.14a7.81 7.81 0 0 0-1.92-4.42c-1.03-1.15-2.72-1.73-5.1-1.73-2.94 0-5.08 1.06-6.42 3.17-1.35 2.05-2.02 5.15-2.02 9.31v25.15H491.1V55.68c0-2.24-.13-4.29-.38-6.14a7.34 7.34 0 0 0-1.82-4.42c-.96-1.15-2.6-1.73-4.9-1.73-3 0-5.22 1.09-6.63 3.27-1.34 2.17-2.01 5.34-2.01 9.5v24.86h-14.6ZM543.79 96.48V33.4h12.67l1.92 6.53a14.26 14.26 0 0 1 6.43-5.86 18.73 18.73 0 0 1 8.07-2.02c4.1 0 7.7 1.03 10.84 3.08 3.2 2.04 5.7 4.96 7.5 8.73 1.78 3.71 2.68 8.16 2.68 13.35 0 5.18-.9 9.66-2.69 13.44a19.98 19.98 0 0 1-7.49 8.54 19.85 19.85 0 0 1-10.84 2.98c-2.56 0-5.25-.68-8.07-2.02a14.83 14.83 0 0 1-6.43-5.95v22.27h-14.6Zm24.48-25.63c2.81 0 5.25-1.15 7.3-3.46 2.1-2.3 3.16-5.7 3.16-10.17 0-4.36-1.05-7.75-3.17-10.18-2.04-2.43-4.48-3.65-7.3-3.65a10.4 10.4 0 0 0-7.48 3.07c-2.05 2.05-3.07 5.54-3.07 10.47 0 4.86 1.02 8.41 3.07 10.65a10.1 10.1 0 0 0 7.49 3.27Z"/></svg>