<svg xmlns="http://www.w3.org/2000/svg" width="49" height="48" fill="none"><path fill="#2D3748" d="M26.5 24a6 6 0 0 0-12 0 14 14 0 1 0 28 0c0-6.52-2.83-12.37-7.33-16.4a2 2 0 0 1 2.5-3.1l.16.12.5.45A25.93 25.93 0 0 1 46.5 24a18 18 0 1 1-36 0 10 10 0 0 1 20 0 2 2 0 1 1-4 0Z"/><path fill="#F56565" d="M18.5 24a2 2 0 1 1 4 0 6 6 0 0 0 12 0 14 14 0 1 0-28 0c0 6.16 2.53 11.73 6.61 15.72l.84.78.15.14a2 2 0 0 1-2.64 2.99l-.16-.13-.5-.45A25.94 25.94 0 0 1 2.5 24a18 18 0 0 1 36 0 10 10 0 0 1-20 0Z"/></svg>