<svg xmlns="http://www.w3.org/2000/svg" width="240" height="240" fill="none"><rect width="235" height="235" x="2.5" y="2.5" fill="#B3DAFF" rx="37.5"/><rect width="235" height="235" x="2.5" y="2.5" stroke="#005CB3" stroke-width="5" rx="37.5"/><g filter="url(#a)"><path fill="#fff" d="M174 40c11-11 31-3 31 13v134c0 10-8 18-18 18H53c-16 0-24-20-13-31L174 40ZM51 200Zm0 0Zm-1 0Zm140 0Zm-140 0Zm-1-1h1-1Zm141 0Zm-141 0Zm142 0Zm-143 0h1-1Zm144 0Zm-144 0Zm144 0Zm-145 0h1-1Zm146 0Zm-146-1v1-1Zm146 0Zm0 0Zm-146 0Zm146 0Zm-147 0Zm148 0Zm-148 0Zm148 0Zm-149-1Zm150 0Zm-150 0Zm0 0Zm150 0Zm-151-1 1 1-1-1Zm152 0Zm-152 0Zm0 0Zm-1-1 1 1-1-1Zm154 1v-1 1Zm-154-1Zm0 0Zm-1-1 1 1-1-1Zm155 1v-1 1Zm1-1Zm-156 0Zm156 0Zm-156 0Zm156 0Zm0-1Zm-156 0Zm156 0Zm1 0Zm0-1Zm0-1v-1 1Zm-158-1v1-1Zm-1 0h1-1Zm160 0v-1 1Zm-160-1v1-1Zm0 0Zm160 0Zm-160 0Zm0-1Zm0 0Zm0-1Zm160 0Zm-160 0Zm0-1Zm0 0Zm0-1Zm0 0Zm0-1Zm0 0Zm0-1Zm0 0Zm1-1Zm0 0Zm0 0Zm0-1Zm0 0Zm1-1Zm0 0Zm0-1v1-1Zm0 0Zm1-1ZM199 47Zm-6-6Zm-9-1ZM42 193Zm-1-2Zm158 0ZM43 178Z"/></g><mask id="b" width="160" height="160" x="40" y="40" maskUnits="userSpaceOnUse" style="mask-type:alpha"><path fill="#333" d="M177 44c9-8 23-3 23 9v134c0 7-6 13-13 13H53c-12 0-17-14-9-23L177 44Z"/></mask><g mask="url(#b)"><path fill="#005CB3" d="M40 20h53v200H40z"/><path fill="#004280" d="M93 20h54v200H93z"/><path fill="#000F1F" d="M147 20h53v200h-53z"/></g><defs><filter id="a" width="210" height="210" x="15" y="19" color-interpolation-filters="sRGB" filterUnits="userSpaceOnUse"><feFlood flood-opacity="0" result="BackgroundImageFix"/><feColorMatrix in="SourceAlpha" result="hardAlpha" values="0 0 0 0 0 0 0 0 0 0 0 0 0 0 0 0 0 0 127 0"/><feOffset dy="4"/><feGaussianBlur stdDeviation="10"/><feComposite in2="hardAlpha" operator="out"/><feColorMatrix values="0 0 0 0 0 0 0 0 0 0 0 0 0 0 0 0 0 0 0.25 0"/><feBlend in2="BackgroundImageFix" result="effect1_dropShadow_728_98"/><feBlend in="SourceGraphic" in2="effect1_dropShadow_728_98" result="shape"/></filter></defs></svg>