<svg width="619" height="97" xmlns="http://www.w3.org/2000/svg"><path d="M0 77.89V19.84C0 9.434 8.133.865 18.327.865h59.346C87.867.865 96 9.435 96 19.84v58.05c0 10.406-8.133 18.975-18.327 18.975H18.327C8.133 96.865 0 88.295 0 77.891Z" fill="#0056A6"/><path d="M2 19.84C2 10.465 9.31 2.865 18.327 2.865h59.346C86.69 2.865 94 10.465 94 19.84v58.05c0 9.375-7.31 16.975-16.327 16.975H18.327C9.31 94.865 2 87.265 2 77.891V19.84Z" fill="#86C5FF"/><path d="M69.42 17.169C74.064 12.527 82 15.814 82 22.379V75.63C82 79.7 78.7 83 74.63 83H21.38c-6.565 0-9.853-7.937-5.211-12.58L69.42 17.17Zm5.213 63.83.136-.001c.019 0 .038-.002.056-.003a5.345 5.345 0 0 1-.192.004Zm.361-.013Zm.264-.024Zm-54.736-.027.063.01-.063-.01Zm55.004-.011ZM20.321 80.9l.088.015-.088-.015Zm55.445-.023Zm-55.835-.067.042.01-.041-.01Zm56.107.001.103-.029-.103.03Zm.25-.075Zm-56.732-.043.012.004-.012-.004Zm56.99-.048c.029-.01.056-.022.084-.033-.028.011-.055.023-.083.033Zm-57.363-.1.041.018-.04-.017Zm57.577.013Zm.256-.119c.023-.01.045-.022.067-.034l-.067.034Zm-58.283-.122c.057.032.113.064.171.094-.058-.03-.114-.062-.17-.094Zm58.517 0 .08-.047-.08.047Zm-58.837-.196Zm59.041.075.097-.062-.097.062Zm.219-.143Zm-59.592-.172c.056.043.111.088.169.13-.058-.042-.113-.087-.169-.13Zm59.811.012.037-.028c-.013.01-.024.02-.037.028Zm-60.105-.26Zm60.304.101.048-.04a3.702 3.702 0 0 1-.048.04Zm.178-.157.081-.078-.081.078Zm-60.758-.215c.053.057.107.114.164.168-.057-.054-.11-.111-.164-.168Zm60.944.035.07-.073c-.024.025-.046.05-.07.073Zm-61.17-.289c.043.052.085.104.13.154-.044-.05-.087-.102-.13-.154Zm61.345.103.06-.069-.06.069Zm.17-.199Zm-61.836-.323Zm61.982.135Zm-62.135-.374c.047.076.093.152.143.226-.05-.074-.096-.15-.143-.226Zm62.278.172Zm.14-.219c.022-.036.043-.074.064-.111-.021.037-.042.075-.065.111Zm.25-.467Zm.105-.233.04-.103-.04.103Zm.096-.244c.015-.043.03-.086.043-.13l-.043.13Zm-63.5-.486c.012.047.028.094.042.142-.014-.047-.03-.095-.042-.142Zm-.081-.359c.009.047.02.093.03.139-.01-.047-.021-.092-.03-.139Zm63.886-.617Zm-63.945.248c.008.064.02.127.03.19-.01-.063-.022-.126-.03-.19Zm-.032-.379c.003.072.01.144.017.216-.006-.072-.014-.144-.017-.216Zm-.006-.383Zm.02-.37Zm.048-.376c-.011.071-.02.142-.028.213.009-.07.017-.142.028-.213Zm.075-.37a4.89 4.89 0 0 0-.043.203c.014-.068.027-.135.043-.203Zm.102-.365a4.756 4.756 0 0 0-.05.17c.016-.057.032-.114.05-.17Zm.118-.332c-.004.011-.01.022-.013.034l.013-.034Zm.162-.366-.024.048.024-.047Zm.208-.385-.049.083.05-.083Zm.552-.766a5.75 5.75 0 0 0-.004.005l.004-.005ZM79.894 76.7l.027-.156c-.01.052-.017.104-.028.156Zm.044-.258Zm.035-.266.012-.178c-.004.06-.007.119-.012.178Z" fill="#EDF6FF"/><mask id="logo-color-ramp__a" style="mask-type:alpha" maskUnits="userSpaceOnUse" x="16" y="17" width="64" height="64"><path d="M70.835 18.583C74.217 15.201 80 17.597 80 22.38v53.252A5.369 5.369 0 0 1 74.631 81H21.38c-4.783 0-7.178-5.783-3.796-9.165l53.252-53.252Z" fill="#333"/></mask><g mask="url(#logo-color-ramp__a)"><path fill="#0285FF" d="M16 9h21.333v80H16z"/><path fill="#0056A6" d="M37.333 9h21.333v80H37.333z"/><path fill="#001D38" d="M58.667 9H80v80H58.667z"/></g><path d="M138.02 82.128c-6.647 0-12.367-1.316-17.16-3.948-4.794-2.632-8.469-6.392-11.025-11.28C107.278 62.012 106 56.247 106 49.604c0-6.643 1.31-12.377 3.931-17.202 2.684-4.888 6.455-8.648 11.312-11.28 4.858-2.695 10.578-4.042 17.161-4.042 6.072 0 11.344 1.316 15.818 3.948 4.538 2.632 8.021 6.173 10.45 10.622l-13.422 4.794c-1.406-2.57-3.323-4.387-5.752-5.452-2.429-1.128-4.953-1.692-7.574-1.692-2.939 0-5.624.815-8.053 2.444-2.428 1.567-4.346 3.885-5.752 6.956-1.406 3.008-2.109 6.643-2.109 10.904 0 6.58 1.534 11.625 4.602 15.134 3.132 3.447 6.966 5.17 11.504 5.17 2.429 0 4.922-.501 7.478-1.504 2.62-1.003 4.666-2.851 6.136-5.546l13.326 4.794c-2.557 4.45-6.2 7.99-10.93 10.622-4.665 2.57-10.034 3.854-16.106 3.854Zm53.524 0c-4.41 0-8.533-.877-12.368-2.632-3.834-1.755-6.934-4.45-9.299-8.084-2.365-3.697-3.547-8.335-3.547-13.912 0-5.64 1.182-10.246 3.547-13.818 2.365-3.635 5.465-6.298 9.299-7.99 3.835-1.755 7.958-2.632 12.368-2.632 4.346 0 8.436.877 12.271 2.632 3.835 1.692 6.934 4.355 9.299 7.99 2.365 3.572 3.547 8.178 3.547 13.818 0 5.577-1.182 10.215-3.547 13.912-2.365 3.635-5.464 6.33-9.299 8.084-3.835 1.755-7.925 2.632-12.271 2.632Zm0-11.092c2.94 0 5.368-1.034 7.286-3.102 1.981-2.068 2.972-5.546 2.972-10.434 0-4.95-1.023-8.397-3.068-10.34-1.982-2.005-4.378-3.008-7.19-3.008-2.877 0-5.337 1.003-7.382 3.008-1.982 1.943-2.972 5.39-2.972 10.34 0 4.888.99 8.366 2.972 10.434 1.981 2.068 4.442 3.102 7.382 3.102ZM237.972 81c-3.899 0-6.999-.313-9.3-.94-2.301-.69-3.962-1.974-4.985-3.854-.959-1.943-1.438-4.731-1.438-8.366V18.208h14.572V64.08c0 2.193.448 3.635 1.342 4.324.895.627 2.557.94 4.986.94h4.122V81h-9.299Zm35.615 1.128c-4.41 0-8.533-.877-12.368-2.632-3.834-1.755-6.934-4.45-9.299-8.084-2.365-3.697-3.547-8.335-3.547-13.912 0-5.64 1.182-10.246 3.547-13.818 2.365-3.635 5.465-6.298 9.299-7.99 3.835-1.755 7.958-2.632 12.368-2.632 4.346 0 8.436.877 12.271 2.632 3.835 1.692 6.934 4.355 9.299 7.99 2.365 3.572 3.547 8.178 3.547 13.818 0 5.577-1.182 10.215-3.547 13.912-2.365 3.635-5.464 6.33-9.299 8.084-3.835 1.755-7.925 2.632-12.271 2.632Zm0-11.092c2.94 0 5.368-1.034 7.286-3.102 1.981-2.068 2.972-5.546 2.972-10.434 0-4.95-1.023-8.397-3.068-10.34-1.981-2.005-4.378-3.008-7.19-3.008-2.876 0-5.337 1.003-7.382 3.008-1.982 1.943-2.972 5.39-2.972 10.34 0 4.888.99 8.366 2.972 10.434 1.981 2.068 4.442 3.102 7.382 3.102ZM304.292 81V34.376h11.504l2.589 8.554c1.47-3.76 3.483-6.392 6.04-7.896 2.556-1.504 5.656-2.162 9.299-1.974v14.288a12.682 12.682 0 0 0-2.013-.188 17.813 17.813 0 0 0-1.918-.094c-3.515 0-6.231.815-8.149 2.444-1.853 1.63-2.78 4.293-2.78 7.99V81h-14.572Zm31.648-17.296V51.578h31.253v12.126H335.94ZM372.185 81V18.208h24.638c5.561 0 10.514.533 14.86 1.598 4.41 1.065 7.861 3.008 10.354 5.828 2.556 2.82 3.835 6.83 3.835 12.032 0 2.381-.448 4.763-1.343 7.144-.894 2.319-2.46 4.45-4.697 6.392-2.173 1.943-5.305 3.447-9.395 4.512L429.035 81h-17.544l-17.352-23.688h-6.807V81h-15.147Zm15.147-36.096h9.971c3.579 0 6.551-.439 8.915-1.316 2.429-.94 3.643-2.851 3.643-5.734 0-2.945-1.214-4.857-3.643-5.734-2.364-.94-5.336-1.41-8.915-1.41h-9.971v14.194Zm60.526 37.224c-3.004 0-5.752-.564-8.245-1.692-2.492-1.128-4.473-2.695-5.943-4.7-1.47-2.068-2.205-4.512-2.205-7.332 0-3.823 1.342-6.862 4.026-9.118 2.748-2.256 6.487-3.948 11.217-5.076 4.729-1.128 10.162-1.911 16.298-2.35 0-3.321-.544-5.671-1.63-7.05-1.087-1.379-3.196-2.068-6.328-2.068-1.981 0-3.738.47-5.272 1.41-1.47.877-2.461 2.256-2.972 4.136l-12.272-4.324c1.598-3.133 4.251-5.734 7.958-7.802 3.77-2.068 8.372-3.102 13.805-3.102 6.775 0 11.983 1.473 15.626 4.418 3.644 2.945 5.465 7.959 5.465 15.04v10.246c0 2.005.064 4.167.192 6.486a97.34 97.34 0 0 0 .575 6.58c.256 2.068.543 3.791.863 5.17h-13.518l-1.725-5.64c-1.79 2.444-4.059 4.199-6.807 5.264-2.684 1.003-5.72 1.504-9.108 1.504Zm5.369-9.776c2.876 0 5.273-.752 7.19-2.256 1.918-1.504 2.876-4.387 2.876-8.648V60.32c-5.049.439-9.107 1.128-12.175 2.068-3.068.877-4.602 2.538-4.602 4.982 0 1.504.639 2.726 1.917 3.666 1.279.877 2.877 1.316 4.794 1.316ZM485.418 81V34.376h12.75l1.822 6.204c1.086-1.755 2.876-3.447 5.368-5.076 2.493-1.63 5.497-2.444 9.012-2.444 3.771 0 6.775.658 9.012 1.974 2.301 1.316 3.994 3.259 5.081 5.828 1.853-2.57 4.186-4.512 6.998-5.828 2.877-1.316 5.976-1.974 9.3-1.974 6.072 0 10.258 1.692 12.559 5.076 2.301 3.321 3.451 8.147 3.451 14.476V81h-14.572V56.184c0-2.193-.128-4.199-.384-6.016-.255-1.817-.894-3.259-1.917-4.324-1.023-1.128-2.716-1.692-5.081-1.692-2.94 0-5.081 1.034-6.423 3.102-1.343 2.005-2.014 5.045-2.014 9.118V81h-14.668V56.184c0-2.193-.127-4.199-.383-6.016-.192-1.817-.799-3.259-1.822-4.324-.958-1.128-2.588-1.692-4.889-1.692-3.004 0-5.209 1.065-6.615 3.196-1.342 2.13-2.013 5.233-2.013 9.306V81h-14.572Zm83.385 15.134V34.376h12.655l1.918 6.392c1.533-2.57 3.675-4.48 6.423-5.734 2.812-1.316 5.496-1.974 8.053-1.974 4.09 0 7.701 1.003 10.833 3.008 3.196 2.005 5.688 4.857 7.478 8.554 1.789 3.635 2.684 7.99 2.684 13.066 0 5.076-.895 9.463-2.684 13.16-1.79 3.635-4.282 6.423-7.478 8.366-3.132 1.943-6.743 2.914-10.833 2.914-2.557 0-5.241-.658-8.053-1.974-2.748-1.316-4.89-3.259-6.423-5.828v21.808h-14.573Zm24.447-25.098c2.812 0 5.241-1.128 7.286-3.384 2.109-2.256 3.164-5.577 3.164-9.964 0-4.261-1.055-7.583-3.164-9.964-2.045-2.381-4.474-3.572-7.286-3.572-2.876 0-5.369 1.003-7.478 3.008-2.045 2.005-3.068 5.42-3.068 10.246 0 4.763 1.023 8.24 3.068 10.434 2.109 2.13 4.602 3.196 7.478 3.196Z" fill="#86C5FF"/></svg>