<svg xmlns="http://www.w3.org/2000/svg" width="33" height="32" fill="none"><path fill="#FFEF3F" fill-rule="evenodd" d="M16.32 7.6c-3.73 0-6.06 1.87-7 5.6 1.4-1.87 3.04-2.57 4.9-2.1 1.07.27 1.83 1.04 2.67 1.9 1.37 1.39 2.96 3 6.43 3 3.74 0 6.07-1.87 7-5.6-1.4 1.87-3.03 2.57-4.9 2.1-1.06-.27-1.82-1.04-2.67-1.9-1.37-1.39-2.96-3-6.43-3Zm-7 8.4c-3.73 0-6.06 1.87-7 5.6 1.4-1.87 3.04-2.57 4.9-2.1 1.07.27 1.83 1.04 2.67 1.9 1.37 1.39 2.96 3 6.43 3 3.74 0 6.07-1.87 7-5.6-1.4 1.87-3.03 2.57-4.9 2.1-1.06-.27-1.82-1.04-2.67-1.9-1.37-1.39-2.96-3-6.43-3Z" clip-rule="evenodd"/></svg>