<svg xmlns="http://www.w3.org/2000/svg" width="25" height="24" fill="none"><g fill="#EDF6FF" clip-path="url(#a)"><path d="M12.33 2.16c3.2 0 3.59.01 4.85.07 1.17.05 1.8.25 2.22.41.56.22.96.48 1.38.9.42.42.68.82.9 1.38.16.42.36 1.06.41 2.22.06 1.27.07 1.65.07 4.85 0 3.2-.01 3.59-.07 4.85a6.58 6.58 0 0 1-.41 2.22c-.22.56-.48.96-.9 1.38-.42.42-.82.68-1.38.9a6.6 6.6 0 0 1-2.22.41c-1.27.06-1.65.07-4.85.07-3.2 0-3.59-.01-4.85-.07a6.58 6.58 0 0 1-2.22-.41 3.71 3.71 0 0 1-1.38-.9 3.7 3.7 0 0 1-.9-1.38 6.6 6.6 0 0 1-.4-2.22 84.58 84.58 0 0 1-.08-4.85c0-3.2.01-3.59.07-4.85.05-1.17.25-1.8.41-2.22.22-.56.48-.96.9-1.38a3.7 3.7 0 0 1 1.38-.9 6.6 6.6 0 0 1 2.22-.4c1.26-.07 1.64-.08 4.85-.08Zm0-2.16C9.07 0 8.66.01 7.4.07a8.77 8.77 0 0 0-2.92.56c-.79.3-1.46.72-2.12 1.39a5.88 5.88 0 0 0-1.4 2.12A8.8 8.8 0 0 0 .4 7.05 88.3 88.3 0 0 0 .33 12c0 3.26.01 3.67.07 4.95.06 1.27.26 2.15.56 2.9.3.8.72 1.47 1.39 2.13a5.87 5.87 0 0 0 2.12 1.39c.76.3 1.64.5 2.91.55 1.28.06 1.69.08 4.95.08 3.25 0 3.66-.02 4.94-.07a8.77 8.77 0 0 0 2.91-.56c.79-.3 1.46-.72 2.13-1.39a5.87 5.87 0 0 0 1.38-2.12c.3-.76.5-1.63.56-2.91.05-1.28.07-1.69.07-4.95 0-3.25-.02-3.66-.07-4.94a8.77 8.77 0 0 0-.56-2.91c-.3-.8-.7-1.47-1.38-2.13A5.87 5.87 0 0 0 20.2.63a8.8 8.8 0 0 0-2.9-.56C15.98.01 15.58 0 12.32 0Z"/><path d="M12.33 5.84a6.17 6.17 0 1 0 0 12.33 6.17 6.17 0 0 0 0-12.33Zm0 10.16a4 4 0 1 1 0-8 4 4 0 0 1 0 8ZM20.18 5.6a1.44 1.44 0 1 1-2.88 0 1.44 1.44 0 0 1 2.88 0Z"/></g><defs><clipPath id="a"><path fill="#fff" d="M.33 0h24v24h-24z"/></clipPath></defs></svg>