<svg xmlns="http://www.w3.org/2000/svg" width="49" height="48" fill="none"><path fill="#fff" d="M4.17 3a.47.47 0 0 0-.45.58l5.06 20.5.02.07 5.06 20.5a.47.47 0 0 0 .78.22L45.15 15.5a.47.47 0 0 0-.2-.78L34.85 11.8a.47.47 0 0 0-.22-.06L14.67 6a.47.47 0 0 0-.26-.07L4.3 3.02A.47.47 0 0 0 4.17 3Zm.65 1.14 8.67 2.5L7 12.91 4.81 4.14ZM15.07 7.1l8.51 2.45-6.39 6.15-2.12-8.6Zm-.92.2 2.13 8.63-8.53-2.45 6.4-6.17Zm11 2.7 8.53 2.45-6.4 6.18L25.13 10Zm-.92.22 2.12 8.58-8.5-2.44 6.38-6.14Zm11.03 2.69 8.66 2.5-6.5 6.25-2.16-8.75Zm-.92.2 2.13 8.63-8.53-2.45 6.4-6.17Zm-27 1.23 8.68 2.49L9.5 23.1l-2.16-8.76Zm10.24 2.92 8.54 2.45-6.4 6.17-2.14-8.62Zm-.9.24 2.16 8.78-8.69-2.5 6.53-6.28Zm10.98 2.69 8.68 2.5-6.52 6.27-2.16-8.77Zm-.91.22 2.16 8.77-8.68-2.5 6.52-6.27ZM9.89 24.68l8.53 2.46-6.4 6.16-2.13-8.62Zm10.25 2.95 8.5 2.46-6.38 6.14-2.12-8.6Zm-.95.07 2.13 8.62-8.53-2.45 6.4-6.17Zm-6.82 7.03 8.82 2.53-6.62 6.36-2.2-8.89Z"/></svg>