<svg xmlns="http://www.w3.org/2000/svg" width="49" height="48" fill="none"><path fill="url(#a)" fill-rule="evenodd" d="M3.5 24a21 21 0 0 1 21-21v21h-21Z" clip-rule="evenodd"/><path fill="url(#b)" fill-rule="evenodd" d="M3.5 45a21 21 0 0 1 21-21v21h-21Z" clip-rule="evenodd"/><path fill="url(#c)" d="M35 24a10.5 10.5 0 1 0 0-21 10.5 10.5 0 0 0 0 21Z"/><path fill="url(#d)" d="M35 34.5 24.5 24h21v21L35 34.5Z"/><defs><radialGradient id="a" cx="0" cy="0" r="1" gradientTransform="rotate(-124.04 18 5.83) scale(26.5595)" gradientUnits="userSpaceOnUse"><stop stop-color="#8DA4EF" stop-opacity=".39"/><stop offset="1" stop-color="#6A86E0" stop-opacity=".75"/></radialGradient><radialGradient id="b" cx="0" cy="0" r="1" gradientTransform="rotate(137.31 6 17.34) scale(27.9987)" gradientUnits="userSpaceOnUse"><stop stop-color="#DD647C"/><stop offset="1" stop-color="#F6D8DE"/></radialGradient><radialGradient id="c" cx="0" cy="0" r="1" gradientTransform="rotate(-132.95 25.36 .96) scale(19.1083)" gradientUnits="userSpaceOnUse"><stop stop-color="#EC7B46"/><stop offset="1" stop-color="#F4BDA3"/></radialGradient><radialGradient id="d" cx="0" cy="0" r="1" gradientTransform="rotate(143.17 17.82 21.06) scale(12.1212)" gradientUnits="userSpaceOnUse"><stop stop-color="#3DAD8F"/><stop offset="1" stop-color="#80DBC3"/></radialGradient></defs></svg>